<svg xmlns="http://www.w3.org/2000/svg" xmlns:xlink="http://www.w3.org/1999/xlink" fill="none" version="1.1" width="74.815185546875" height="74.71728515625" viewBox="0 0 74.815185546875 74.71728515625"><path d="M65.9337863125,0.09764862060546875L59.918161312500004,8.52639862060547L54.3494120125,6.085773020605469L62.152536312500004,1.8748362206054687L51.7884755125,4.968585520605469L47.8095703125,3.2326488206054687L65.9337863125,0.09764862060546875Z" fill="#BAD5FE" fill-opacity="1" style="mix-blend-mode:passthrough"/><path d="M62.15263421875,1.8767547607421875L54.34951071875,6.087691760742188L52.88857321875,10.118161160742188L51.78857421875,4.970504060742187L62.15263421875,1.8767547607421875Z" fill="#0064FF" fill-opacity="1" style="mix-blend-mode:passthrough"/><path d="M54.349365234375,6.087684631347656L56.747018334375,7.144716031347656L52.888427734375,10.118152631347655L54.349365234375,6.087684631347656Z" fill="#111111" fill-opacity="1" style="mix-blend-mode:passthrough"/><path d="M59.91818076953125,8.612484C59.90606376953125,8.6137733,59.89385776953125,8.6106796,59.88380376953125,8.6038914L54.31507016953125,6.1632404C54.28045706953125,6.1399503,54.26756426953125,6.09516,54.28451156953125,6.0570378C54.30144836953125,6.0189171,54.343336569531246,5.9984632,54.38381386953125,6.0085526L59.89240076953125,8.4148026L65.75333376953125,0.20776993L48.11038159953125,3.2585526L51.82288266953125,4.8827705C51.85749056953125,4.9060607,51.87038326953125,4.9508419,51.85343596953125,4.9889731C51.83649396953125,5.0270939,51.79461096953125,5.0475478,51.75413366953125,5.0374584L47.78382015253125,3.3015213C47.75161457053125,3.28509,47.73159885406125,3.251729,47.73225450515725,3.2155838C47.73996496203125,3.1794987,47.76607561153125,3.1501248,47.80100870153125,3.1382399L65.92520876953125,0.0015197992C65.95812176953125,-0.0047442913,65.99163776953125,0.0086709857,66.01114676953125,0.03589493C66.02841976953125,0.065045178,66.02841976953125,0.10127646,66.01114676953125,0.13042539L59.99552176953125,8.5608959C59.97928276953125,8.5892897,59.95066476953125,8.6083603,59.91818076953125,8.612484Z" fill="#111111" fill-opacity="1" style="mix-blend-mode:passthrough"/><path d="M52.888408553125,10.195020680761719C52.846918953125,10.19585418076172,52.810758453125,10.166927380761718,52.802471053125,10.12626268076172L51.693875312725,4.987199980761719C51.686584473125,4.942847980761719,51.711834906125,4.899569780761719,51.754032608125,4.884075380761718L62.118128953125,1.7903295752617188C62.160583953125,1.7784878620617188,62.205183953125,1.8007740967617187,62.221254953125,1.8418919407617187C62.238526953125,1.8799682187617188,62.223489953125,1.9249294807617188,62.186882953125,1.9450173207617187L54.418089653125,6.147364180761719L52.974346053125,10.143457380761719C52.959722353125,10.177291880761718,52.925145953124996,10.198036180761719,52.888408553125,10.195020680761719ZM51.882938843125,5.030176680761718L52.914183453125,9.808301880761718L54.271994853125,6.061426680761719C54.279091553125,6.041344180761719,54.294890153125,6.0255479807617185,54.314963553125,6.018457880761718L61.396257353125,2.2028304607617186L51.882938843125,5.030176680761718Z" fill="#111111" fill-opacity="1" style="mix-blend-mode:passthrough"/><path d="M52.888427734375,10.194929609472656C52.861079216375,10.196296209472656,52.835000038375,10.183259009472657,52.819678783375,10.160553909472657C52.791202545375,10.122578609472656,52.798902511575,10.068712909472657,52.836867332375,10.040241909472655L56.695457934375,7.065083503472656C56.733433234375,7.036604642472656,56.787296334375,7.044299364072656,56.815777734375,7.082270741472656C56.844259234375,7.1202394964726565,56.836564534375,7.174107789472656,56.798589234375,7.202584029472656L52.939993384375,10.176023509472657C52.931396484375,10.194929609472656,52.914213184375,10.194929609472656,52.888427734375,10.194929609472656Z" fill="#111111" fill-opacity="1" style="mix-blend-mode:passthrough"/><path d="M73.71968647734374,24.590168253515625C74.32646277734375,25.244657553515626,74.66403387734375,26.103938053515627,74.66499897734374,26.996418253515625C74.66755867734375,27.897909653515626,74.32288027734376,28.765766153515624,73.70249797734375,29.419854153515626C73.16411397734375,29.992704353515624,72.45073937734375,30.370555853515626,71.67437507734375,30.494072953515627C71.48941847734375,30.521521053515624,71.30276247734375,30.535882453515626,71.11578127734376,30.537041653515626C69.15916107734375,30.539895053515625,67.57230186464375,28.953033453515623,67.57515001296974,26.996418253515625C67.57296276094375,26.288197053515624,67.78572416734374,25.595989453515624,68.18530940734375,25.011261453515626C69.46536587734374,23.123681303515625,72.16877797734375,22.917985203515624,73.71968647734374,24.590168253515625Z" fill="#0064FF" fill-opacity="1" style="mix-blend-mode:passthrough"/><path d="M71.12437057734375,30.70803829453125C68.39115524734375,30.68978499453125,66.64020490734374,27.79253099453125,67.89484834734375,25.36422209453125C69.14948657734375,22.93591594453125,72.52561757734375,22.68768382453125,74.12193397734374,24.90636249453125C75.71824457734375,27.12505439453125,74.40989067734375,30.24724909453125,71.70873927734375,30.66506959453125C71.51513857734375,30.69251729453125,71.31990667734375,30.70686819453125,71.12437057734375,30.70803829453125ZM71.12437057734375,23.62679386453125C69.26307157734375,23.62330579453125,67.75166988734375,25.12994739453125,67.74929904734375,26.99124119453125C67.74692296734375,28.85254569453125,69.25447467734375,30.36303429453125,71.11577887734374,30.36428829453125C71.29417367734375,30.36279299453125,71.47224857734375,30.34843159453125,71.64859247734375,30.32131959453125C72.38482567734376,30.20011329453125,73.06101707734375,29.84087659453125,73.57358927734376,29.29867169453125C74.49033117734375,28.32010939453125,74.73942617734374,26.89104719453125,74.20785047734375,25.66003609453125C73.67627997734375,24.42901439453125,72.46525577734376,23.63047075453125,71.12437057734375,23.62679386453125Z" fill="#111111" fill-opacity="1" style="mix-blend-mode:passthrough"/><path d="M71.124452116875,27.1681108703125C71.076500416875,27.1678957703125,71.030421256875,27.1494614703125,70.995551108875,27.116547870312502C70.928894996875,27.0487088703125,70.932813167875,26.9388296703125,71.004137515875,26.8759238703125L73.599451046875,24.4696738723125C73.665330846875,24.3888347153125,73.787428846875,24.3848063943125,73.858490946875,24.4611294273125C73.929553046875,24.5374524603125,73.916817646875,24.6589551003125,73.831483346875,24.7188921003125L71.236169816875,27.1251420703125C71.205716136875,27.153088570312498,71.165789606875,27.1684465703125,71.124452116875,27.1681108703125Z" fill="#111111" fill-opacity="1" style="mix-blend-mode:passthrough"/><path d="M69.66359136171874,31.799922228515626C69.42313006171875,31.799027928515624,69.18570046171875,31.746261128515624,68.96749449171875,31.645233128515624C68.41340113171874,31.395464228515625,68.04993963271875,30.851934628515625,68.03077888491875,30.244452928515624C68.01508522031875,29.834796928515626,68.02081823351875,29.424603228515625,68.04796743371875,29.015547748515626C68.03335428271875,28.907131910515623,68.12240743171876,28.812838792815626,68.23148155171874,28.821228504185626C68.34056091171875,28.829618215515627,68.41414070171875,28.936421158515625,68.38312578171875,29.041327948515626C68.35168600171875,29.435851578515624,68.34594250171875,29.832003828515624,68.36593723171875,30.227264428515625C68.38550186171875,30.705816228515626,68.67032718171875,31.133502728515627,69.10434196171875,31.336038628515624C69.53835156171876,31.538584928515625,70.04909846171876,31.482159628515625,70.42843196171874,31.189765428515624C70.81515076171875,30.897578428515626,71.20186946171874,30.613983128515624,71.57999656171874,30.356170628515624C71.65831276171875,30.301790928515626,71.76586056171875,30.321090728515625,71.82037406171875,30.399312528515626C71.87489266171875,30.477531628515624,71.85577916171874,30.585108328515624,71.77765176171874,30.639765928515626C71.40812156171874,30.897578428515626,71.02140286171876,31.172576928515625,70.64327576171875,31.464763928515623C70.36257316171876,31.681396228515624,70.01816746171875,31.799216728515624,69.66359136171874,31.799922228515626Z" fill="#111111" fill-opacity="1" style="mix-blend-mode:passthrough"/><path d="M12.222884647949218,13.658616034472656Q2.615939847949219,13.735960034472656,1.6525805479492188,13.495335534472657C0.6900807579492187,13.254710234472656,-0.4528882520507812,11.338329834472656,0.6127368779492188,9.103954834472656Q1.6792209479492188,6.869579834472656,3.3111743479492186,7.522705034472656Q3.1736741479492188,4.395440934472656,6.525236647949218,4.557862758672656Q9.876791047949219,4.720284584472656,9.739290247949219,8.296142534472656Q12.265852647949218,8.417313534472656,11.947883647949219,10.736767334472656Q13.124368647949218,10.246923434472656,13.743978647949218,11.957079434472657Q14.363587647949219,13.667210534472657,12.222884647949218,13.658616034472656Z" fill="#FFFFFF" fill-opacity="1" style="mix-blend-mode:passthrough"/><path d="M12.119852,13.417310708691407C11.483912,13.417310708691407,10.84789,13.425905208691406,10.212038,13.425905208691406L6.1901207,13.425905208691406C4.9612141,13.417310708691407,3.7323077,13.417310708691407,2.5034018,13.348560308691406C2.1928239,13.340224308691406,1.8829499,13.314444508691405,1.5752765,13.271217308691407C1.5323077,13.262622808691406,1.5924644,13.279811908691407,1.5666828,13.271217308691407C1.5272632,13.257553108691406,1.4870961,13.246037508691407,1.4463702,13.236843108691406C1.3684506,13.203498808691407,1.293677,13.163280508691406,1.2229328,13.116529508691407C1.0603478,13.007216408691406,0.91788924,12.870552108691406,0.80183899,12.712666508691406C0.52744967,12.315987608691406,0.36424828,11.853094108691407,0.32918274,11.372041208691407C0.28986794,10.691150208691406,0.42287463,10.011341108691406,0.71590149,9.395478708691407C0.93708736,8.883145308691407,1.2826941,8.434147308691406,1.7213707,8.089229108691406C2.0023,7.886124108691407,2.3308389,7.758850608691406,2.6752768,7.719697508691406C2.798305,7.711104608691406,2.9217799,7.711104608691406,3.0448077,7.719697508691406C3.0945487,7.720616808691407,3.1438425,7.729314808691406,3.1909018,7.745479108691406L3.2424641,7.754073408691406C3.2519088,7.7529378086914065,3.2613704,7.756092808691406,3.2682457,7.762666208691407C3.3007214,7.767229508691406,3.3324838,7.775892208691406,3.3627768,7.788447808691407C3.3839345,7.797927408691406,3.4086161,7.7947814086914065,3.426723,7.780293008691406C3.4448295,7.7658121086914065,3.4533117,7.742419708691406,3.4487143,7.719697508691406C3.4405246,7.373077108691406,3.4898958,7.027505908691406,3.5948076,6.697042008691406C3.7953687,5.993162408691406,4.2904377,5.410359408691406,4.95262,5.098603848691406C5.4469414,4.892047528691406,5.9818506,4.800935628691406,6.5166836,4.832197068691406C7.0564651,4.8360142686914065,7.5883322,4.962368728691406,8.0721512,5.201728578691406C8.262125,5.306040048691406,8.4406939,5.429884708691406,8.6049213,5.571260108691407C8.6736708,5.631416108691406,8.7338276,5.700166308691406,8.802577,5.7689166086914065C8.8407335,5.803360608691406,8.8727026,5.844043708691406,8.8971949,5.889228608691406L8.9314833,5.949385908691406L8.9572649,5.983760308691406C8.9831324,6.018134808691406,9.008913,6.061103608691406,9.0432024,6.104072308691406L9.0775776,6.164229608691406C9.0861712,6.190009808691406,9.1205463,6.232978608691406,9.0861712,6.190009808691406C9.1291399,6.267354408691406,9.180788,6.361884808691406,9.2237568,6.447822308691406C9.2323513,6.456416608691406,9.2580462,6.525167008691406,9.2323513,6.473603708691407L9.258132,6.533759808691406C9.2753201,6.576728608691406,9.2925072,6.628291608691406,9.3096943,6.671260308691407L9.3440695,6.791572308691406C9.3440695,6.800166608691406,9.3698511,6.868917008691406,9.3612576,6.834541108691406C9.352663,6.800166608691406,9.3698511,6.868917008691406,9.3698511,6.877509808691406C9.3956318,6.954854508691406,9.4128199,7.040792008691406,9.4386005,7.118135008691406C9.4471951,7.152510908691406,9.4557886,7.195479608691406,9.4643822,7.238448408691406L9.4729757,7.281417108691406C9.4815693,7.315791608691406,9.4643822,7.247041208691407,9.4729757,7.307197308691406C9.4985857,7.440615608691406,9.5157728,7.575520008691406,9.524538,7.711104608691406C9.5331326,7.771260708691406,9.5331326,7.831416608691406,9.5417261,7.882979608691406C9.540266,7.906225208691406,9.5431871,7.929540108691406,9.5503197,7.951728608691406C9.5589132,7.977510008691406,9.5503197,7.977510008691406,9.5503197,7.986104508691406L9.5503197,8.166572308691407C9.5417261,8.321260008691407,9.6620388,8.587667008691406,9.7995386,8.596260108691407C10.057952,8.609580008691406,10.312843,8.661727908691407,10.555788,8.750947508691407C10.783523,8.821855108691405,10.998281,8.929233508691407,11.191726,9.068916308691406C11.292874,9.137564208691407,11.385172,9.218379508691406,11.466726,9.309541208691407C11.48735,9.334575608691406,11.510383,9.357588808691407,11.535476,9.378291608691406C11.561258,9.404073208691406,11.552664,9.404073208691406,11.56985,9.421260308691405C11.586865,9.456614508691406,11.610157,9.488635108691406,11.638601,9.515791908691407C11.647196,9.524385008691407,11.664382,9.558760608691406,11.638601,9.515791908691407L11.672976,9.575948208691406C11.698929,9.629031208691405,11.721874,9.683541808691405,11.741725,9.739228708691407C11.760118,9.812851908691407,11.774468,9.887445408691406,11.784694,9.962667008691406C11.811851,10.179728008691406,11.809015,10.399512808691405,11.776102,10.615791308691406C11.758913,10.753291608691406,11.9136,11.097041608691406,12.051101,11.036885708691406C12.068289,11.028291208691407,12.033915,11.036885708691406,12.068289,11.028291208691407C12.102663,11.019698108691406,12.154226,11.002510108691407,12.197195,10.993917008691406C12.327649,10.968135308691405,12.461968,10.968135308691405,12.592508,10.993917008691406C12.987819,11.062666908691407,13.340163,11.363448108691406,13.529226,11.818916308691406C13.683913,12.171260308691405,13.769851,12.600948308691406,13.503444,12.927510308691406C13.292985,13.161476108691406,13.012655,13.321146008691406,12.704226,13.382936508691406C12.506998,13.430374108691407,12.305305,13.456327408691406,12.102663,13.460279508691407C11.965076,13.460279508691407,12.154226,13.975904508691407,12.300319,13.975904508691407C12.49136,13.975302708691407,12.681711,13.952272408691407,12.867507,13.907154108691406C13.176882,13.838405608691406,13.537821,13.709499408691407,13.769851,13.408718108691406C14.079226,13.004810308691406,13.993288,12.446260408691407,13.812819,11.965010608691406C13.572195,11.329072508691407,13.168288,10.718916908691407,12.609694,10.529853808691406C12.34836,10.433809708691406,12.060983,10.436869108691406,11.801882,10.538447808691405L12.076883,10.959541308691406C12.188601,10.108760308691405,11.905008,9.257979408691407,11.33782,8.785323108691406C10.933913,8.415792008691406,10.435476,8.235322508691407,9.945632,8.149385008691407C9.8351173,8.126620808691406,9.7230549,8.112260808691406,9.6104755,8.106416208691407L9.8596945,8.536103708691407C9.8691483,8.104096608691407,9.81707,7.672939308691406,9.7050076,7.255635708691406C9.4815693,6.336104608691406,9.008913,5.554072808691406,8.3643398,5.047040818691406C7.9502316,4.735285278691406,7.4665594,4.528840418691407,6.9549637,4.445478319691406C6.3633699,4.326490759691406,5.7526636,4.341171443691406,5.1674638,4.488447068691406C4.3624015,4.692149998691407,3.702075,5.266345618691406,3.3885577,6.035323408691406C3.2722325,6.315771608691406,3.1941931,6.610606208691406,3.1565266,6.911885708691406C3.1390641,7.016969408691406,3.1304364,7.123326508691406,3.1307452,7.229854108691406C3.1221344,7.286822308691406,3.1221344,7.344760908691406,3.1307452,7.401729108691406L3.1307452,7.427510708691406L3.2166827,7.358760308691407C2.8082132,7.220993508691406,2.3644667,7.230112508691406,1.9619952,7.384542008691406C1.0166827,7.736884808691406,0.3034032,8.871260608691406,0.071371555,10.057197608691407C-0.16065878,11.277510608691406,0.18309122,12.575166708691405,0.95652676,13.365749408691407C1.1726254,13.608179108691406,1.4573793,13.779022208691407,1.772933,13.855592708691406C1.9036436,13.878451308691407,2.0356872,13.892803208691406,2.1682453,13.898561508691406C3.3112144,13.993091608691406,4.4541836,13.993091608691406,5.5971513,14.001686108691406C7.01512,14.010280608691406,8.4330883,14.010280608691406,9.8425074,14.010280608691406C10.375319,14.010280608691406,10.908133,14.010280608691406,11.440944,14.001686108691406C11.707351,14.001686108691406,11.982351,14.010280608691406,12.248758,14.001686108691406L12.283133,14.001686108691406C12.463602,13.915748608691406,12.265858,13.408718108691406,12.119852,13.417310708691407Z" fill="#0064FF" fill-opacity="1" style="mix-blend-mode:passthrough"/><path d="M4.574337918554687,8.502311438964844Q3.8524627185546874,6.749183058964844,1.8329315185546875,7.737464308964844" fill="#FFFFFF" fill-opacity="1" style="mix-blend-mode:passthrough"/><path d="M4.78919859375,8.424800659863282C4.48245359375,7.693815229863281,3.76864769375,7.216817259763281,2.97591689375,7.213081359863281C2.5479826337500002,7.228121995863281,2.12853247375,7.336651919863281,1.74700844375,7.531049849863281C1.63252717275,7.582939389863281,1.57384574375,7.711305379863282,1.60950857375,7.831831099863281C1.65504944275,7.947680709863281,1.78542959375,8.00520097986328,1.90169555375,7.960737349863281C2.20502859375,7.799216389863282,2.53867566375,7.702635049863281,2.88138579375,7.677143339863282C3.10835519375,7.664497139863281,3.33510159375,7.7057231698632815,3.54310489375,7.797455309863281C3.71688719375,7.876273749863281,3.87430759375,7.987051249863281,4.00716689375,8.124019379863281L4.03294849375,8.158393859863281L4.05872989375,8.192768339863282C4.0847947937499995,8.229206759863281,4.11352349375,8.263675659863281,4.14466739375,8.295894359863281C4.18763609375,8.356050359863282,4.23060489375,8.416206359863281,4.26497939375,8.467769359863281C4.2774490937500005,8.494530459863281,4.29180929375,8.520380159863281,4.307948093749999,8.54511255986328C4.34232329375,8.605268559863282,4.29076099375,8.510738159863282,4.31654239375,8.57089415986328C4.32513619375,8.596675659863282,4.33372979375,8.605268559863282,4.34232329375,8.631050159863282C4.45404169375,8.854488159863282,4.909510593749999,8.698081259863281,4.78919859375,8.424800659863282Z" fill="#0064FF" fill-opacity="1" style="mix-blend-mode:passthrough"/><path d="M11.294775480371094,12.963280394042968Q9.533056780371094,10.77187439404297,7.032276180371094,11.45937439404297C6.499463880371094,11.588280694042968,6.0096230503710935,11.940624394042969,5.640091540371094,12.447655394042968C4.583060030371094,13.934373394042968,5.811966540371094,15.92812439404297,7.728369280371094,15.92812439404297L29.453369380371093,15.893749394042969C31.026023380371093,15.893749394042969,31.722118380371093,14.011717394042968,30.458839380371092,13.135155394042968Q28.954073380371092,12.096171394042969,27.012745380371094,12.971874394042969Q30.398681380371094,8.41716099404297,26.393993380371093,3.7421607940429684C22.389305380371095,-0.9328394059570311,16.536964380371096,3.553098394042969,17.155712380371092,8.41716099404297Q10.753370280371094,4.807785994042969,11.294775480371094,12.963280394042968Z" fill="#FFFFFF" fill-opacity="1" style="mix-blend-mode:passthrough"/><path d="M11.415127744824218,12.816852354492188C11.031434544824219,12.357431354492187,10.568687444824219,11.970367354492188,10.04872224482422,11.673883354492187C9.01747224482422,11.072320954492188,7.814347244824219,10.883258854492187,6.705754044824219,11.278572054492187C5.751849884824219,11.630914354492187,4.806537384824218,12.730915354492188,5.107318639824219,14.097321354492188C5.390912654824219,15.369195354492188,6.516690444824219,16.065289354492187,7.496378944824219,16.159821354492188C7.994816544824219,16.202790354492187,8.50184724482422,16.16841535449219,9.000285144824218,16.16841535449219L12.205754244824218,16.159821354492188L16.59720244482422,16.151227354492185L21.37532844482422,16.142635354492185L25.655014444824218,16.134040354492186L28.637046444824218,16.134040354492186C29.27298344482422,16.134040354492186,29.97767244482422,16.228572354492186,30.56204644482422,15.833259354492187C30.967327444824218,15.557141354492188,31.23846044482422,15.123929354492187,31.30970344482422,14.638726354492187C31.37518644482422,14.119750354492188,31.215686444824218,13.597423354492188,30.871421444824218,13.203571354492187C30.407360444824217,12.687946354492187,29.76282844482422,12.455915354492188,29.16985744482422,12.378570354492188C28.64658544482422,12.317727354492188,28.11669544482422,12.352102354492187,27.605796444824218,12.479977354492188C27.37144444482422,12.537555354492188,27.141649444824218,12.612235354492187,26.918296444824218,12.703415354492188L27.193294444824218,13.158882354492187C27.708835444824217,12.426266354492187,28.08472644482422,11.604618354492187,28.301891444824218,10.735445954492187C28.52971244482422,9.899170854492187,28.61684944482422,9.030798954492187,28.55970344482422,8.165915454492188C28.46861044482422,7.0949788544921875,28.15227544482422,6.055358854492187,27.63157644482422,5.115133954492188C26.56595244482422,3.1815396544921875,24.907360444824217,1.7206060844921875,23.016735444824217,1.5229489204921876C21.48704544482422,1.3682611544921874,19.96595344482422,1.9784185844921875,18.77142044482422,3.1901339544921874C17.59313244482422,4.4062094544921875,16.93631344482422,6.034355654492187,16.94095244482422,7.727633454492188C16.94241344482422,7.937432754492187,16.956764444824216,8.146939254492189,16.98392144482422,8.354977654492188L17.21595344482422,8.157320954492189C17.010475444824216,8.037971454492187,16.79477444482422,7.937312154492187,16.57142244482422,7.8565397544921876C16.07160944482422,7.638499254492188,15.546015444824219,7.485426854492188,15.00735854482422,7.401070554492187C14.39058494482422,7.284222154492188,13.754133244824219,7.328625154492188,13.159668944824219,7.529976854492188C12.53232474482422,7.753415154492187,11.999512644824218,8.260445554492186,11.647168144824219,8.965133154492188C11.15732474482422,9.953413954492188,11.07997224482422,11.190915154492188,11.105753944824219,12.325289354492188C11.105753944824219,12.522945354492187,11.12294104482422,12.712009354492187,11.131543144824219,12.909664354492188C11.148722644824218,13.201851354492188,11.55262854482422,13.347946354492187,11.535441444824219,12.987007354492187C11.45810604482422,11.835446354492188,11.492472644824218,10.589352654492188,11.904980644824219,9.549508054492188C12.035640244824219,9.204117754492188,12.23436264482422,8.888503054492187,12.48935604482422,8.621383154492188C12.593529744824218,8.509819954492187,12.708694944824218,8.409049054492186,12.83310604482422,8.320601954492187C12.955842544824218,8.228811754492188,13.088435144824219,8.150987654492187,13.22841934482422,8.088570554492186C13.355407744824218,8.030013054492187,13.487803444824218,7.9839591544921875,13.623730644824219,7.951071754492188C13.768225644824218,7.916980254492188,13.914577444824218,7.891155754492187,14.06204604482422,7.873726854492188C14.207538644824218,7.8580007544921875,14.354233744824219,7.855122054492187,14.500328044824219,7.865134254492188L14.689390144824218,7.865134254492188C14.764585544824218,7.865219154492188,14.839523344824219,7.8738737544921875,14.912827444824218,7.890914454492187C15.190835444824218,7.928753354492187,15.466351444824218,7.983281154492188,15.73782744482422,8.054196354492188C15.866217444824219,8.086456754492188,15.992462444824218,8.126641754492187,16.115952444824217,8.174508054492186L16.20189044482422,8.200289754492188L16.244858444824217,8.208884254492187C16.21048344482422,8.200289754492188,16.22767244482422,8.200289754492188,16.25345244482422,8.208884254492187L16.416733444824217,8.269040154492188C16.67454644482422,8.372164754492188,16.92376444482422,8.492476954492187,17.17298544482422,8.621383154492188L17.181576444824216,8.621383154492188C17.25453744482422,8.681772254492188,17.365397444824218,8.650740654492187,17.39642044482422,8.561226854492187C17.41489944482422,8.523913854492188,17.42375044482422,8.482543454492188,17.42220344482422,8.440915154492188C17.21595344482422,6.790915454492188,17.80032744482422,5.183882954492187,18.728451444824216,4.040914554492188C19.759701444824216,2.7862272544921876,21.126110444824217,2.0643560844921875,22.552669444824218,2.0127930644921874C23.32653844482422,1.9892715844921876,24.09155444482422,2.1827640544921874,24.761264444824217,2.5713834544921874C25.60345044482422,3.0354461544921874,26.31673444482422,3.7831020544921876,26.918296444824218,4.642477754492187C27.52415444482422,5.495742054492188,27.932272444824218,6.473367654492187,28.11282744482422,7.504195654492188C28.24456944482422,8.340634354492188,28.22119344482422,9.194174254492188,28.04407844482422,10.022164354492187C27.90640444482422,10.654492354492188,27.69585944482422,11.268774954492187,27.41673244482422,11.852633354492188C27.365169444824218,11.972945354492188,27.305015444824217,12.076071354492187,27.25345244482422,12.179196354492188C27.23093844482422,12.226805354492187,27.20507044482422,12.272782354492188,27.17610944482422,12.316695354492188L27.141735444824217,12.376853354492187C27.167514444824217,12.333884354492188,27.133140444824217,12.385445354492187,27.12454644482422,12.411227354492187C27.05579744482422,12.514351354492188,26.995639444824217,12.617477354492188,26.926891444824218,12.712009354492187C26.918296444824218,12.720604354492188,26.90970244482422,12.737789354492188,26.90110744482422,12.746383354492188C26.746421444824218,12.952633354492187,26.995639444824217,13.279197354492187,27.17610944482422,13.201851354492188C27.86000044482422,12.905712354492188,28.61246844482422,12.804650354492187,29.35032644482422,12.909664354492188C29.848766444824218,12.987007354492187,30.45032844482422,13.193260354492187,30.776889444824217,13.674507354492187C30.824241444824217,13.743516354492188,30.86179744482422,13.818711354492187,30.88860744482422,13.897945354492187C30.92306944482422,13.994455354492187,30.94051344482422,14.096203354492188,30.94017044482422,14.198726354492187C30.94429544482422,14.391742354492187,30.90313144482422,14.583124354492188,30.81985844482422,14.757320354492187C30.41595044482422,15.668258354492188,29.53079644482422,15.608103354492188,28.817516444824218,15.608103354492188L26.22220244482422,15.608103354492188L22.26048244482422,15.616695354492187L17.662827444824217,15.625290354492188L13.211222644824218,15.633884354492187L9.679190644824219,15.642479354492188L7.797160144824218,15.642479354492188C7.338665944824219,15.652790354492188,6.885431244824218,15.543220354492188,6.482316044824219,15.324508354492188C6.104191544824219,15.101070354492187,5.751848574824219,14.757320354492187,5.588567854824219,14.310447354492187C5.421657444824219,13.870187354492188,5.4371216248242185,13.381463354492187,5.631536604824219,12.952633354492187C5.883428574824219,12.413891354492188,6.332570544824218,11.992453354492188,6.886222044824219,11.775290354492187C7.450015044824219,11.558814354492187,8.06265544482422,11.502267354492188,8.656535144824218,11.612008354492188C9.505682944824219,11.781994354492188,10.287585244824218,12.193892354492187,10.90809724482422,12.797947354492187C10.95106604482422,12.840915354492187,11.011221844824219,12.892479354492188,11.054190644824219,12.935447354492187L11.097159344824219,12.978416354492188C11.148722644824218,13.038570354492187,11.071377744824218,12.944038354492188,11.105753944824219,12.987007354492187C11.13223934482422,13.020438354492187,11.16095164482422,13.051977354492188,11.191691444824219,13.081539354492188C11.269034344824219,13.176071354492187,11.397940644824219,13.244819354492188,11.475285544824219,13.141697354492187C11.569815644824219,13.023102354492188,11.483878144824219,12.894196354492188,11.415127744824218,12.816852354492188Z" fill="#0064FF" fill-opacity="1" style="mix-blend-mode:passthrough"/><path d="M57.3144797890625,63.43380551953125L36.2683827890625,74.54552251953125L15.2652587890625,63.43380551953125L15.2652587890625,46.65020751953125L57.3144797890625,46.65020751953125L57.3144797890625,63.43380551953125Z" fill="#FFFFFF" fill-opacity="1" style="mix-blend-mode:passthrough"/><path d="M36.268280279296874,74.71739751953125C36.24172627929687,74.71576151953124,36.21568727929687,74.71000651953125,36.190937279296875,74.70021051953125L15.179218054296875,63.57989451953125C15.121695161296875,63.54964651953125,15.085403561596875,63.49017551953125,15.084686279296875,63.42520951953125L15.084686279296875,46.65020751953125C15.084686279296875,46.55528497653125,15.161637425296876,46.47833251953125,15.256561279296875,46.47833251953125L57.305778279296874,46.47833251953125C57.400741279296874,46.47833251953125,57.477653279296874,46.55528497653125,57.477653279296874,46.65020751953125L57.477653279296874,63.43380551953125C57.47602127929687,63.49851651953125,57.440014279296875,63.557466519531246,57.38312527929688,63.588491519531246L36.354217279296876,74.69849051953125C36.32688927929688,74.70966151953125,36.29775627929688,74.71610851953125,36.268280279296874,74.71739751953125ZM15.437030549296875,63.33067851953125L36.268280279296874,74.35474051953125L57.14250227929688,63.32895851953125L57.14250227929688,46.82208251953125L15.437030549296875,46.82208251953125L15.437030549296875,63.33067851953125Z" fill="#111111" fill-opacity="1" style="mix-blend-mode:passthrough"/><path d="M57.31437702929688,43.049220500000004L36.268280029296875,31.9375L45.72999672929687,27.3828125L66.76750202929688,38.4945325L57.31437702929688,43.049220500000004Z" fill="#FFFFFF" fill-opacity="1" style="mix-blend-mode:passthrough"/><path d="M57.31431599414063,43.220758619140625C57.28775799414063,43.21921161914062,57.261720994140624,43.21336761914063,57.236968994140625,43.20356961914062L36.19088101414062,32.08328291914062C36.13252806614062,32.053883519140626,36.09589552879063,31.993933719140625,36.09634923934932,31.928596519140626C36.097972631440626,31.863849619140623,36.13400721514063,31.804888219140626,36.19088101414062,31.773907619140626L45.64399819414062,27.219224932140627C45.69229599414062,27.193405389340626,45.75039199414063,27.193405389340626,45.79868979414063,27.219224932140627L66.83618899414063,38.330912619140626C66.89454299414062,38.36030661914062,66.93114899414063,38.42029061914062,66.93071699414062,38.485604619140624C66.92908699414062,38.550397619140625,66.89307799414063,38.60935361914063,66.83618899414063,38.64029061914063L57.38306399414063,43.19497761914062C57.36432799414062,43.21216561914062,57.33974799414062,43.22144461914063,57.31431599414063,43.220758619140625ZM36.646351334140626,31.945782619140626L57.31431599414063,42.85981961914062L66.38931299414062,38.485604619140624L45.721343994140625,27.571566609140625L36.646351334140626,31.945782619140626Z" fill="#111111" fill-opacity="1" style="mix-blend-mode:passthrough"/><path d="M15.265163408691405,43.04918698242187L36.30266590869141,31.937469482421875L26.849538908691407,27.382781982421875L5.803443908691406,38.494498982421874L15.265163408691405,43.04918698242187Z" fill="#FFFFFF" fill-opacity="1" style="mix-blend-mode:passthrough"/><path d="M15.265087166308593,43.22134741015625C15.238532066308593,43.21979941015625,15.212408066308594,43.21395641015625,15.187744166308594,43.20415841015625L5.734601974308593,38.64947141015625C5.674570560308593,38.62197141015625,5.6371984482085935,38.56078541015625,5.640070199968593,38.494785410156254C5.6416949034085935,38.43007441015625,5.6777268653085935,38.37112441015625,5.734601974308593,38.34009841015625L26.772119466308595,27.22840809615625C26.820415466308592,27.20259118125625,26.878423466308593,27.20259118125625,26.926805466308593,27.22840809615625L36.37993046630859,31.78309251015625C36.43991446630859,31.81064561015625,36.477296466308594,31.87179951015625,36.474462466308594,31.93778181015625C36.472827466308594,32.00252581015625,36.4368224663086,32.06148721015625,36.37993046630859,32.09246831015625L15.342430066308594,43.20415841015625C15.317681266308593,43.21395641015625,15.291642166308593,43.21979941015625,15.265087166308593,43.22134741015625ZM6.181476716308594,38.48619341015625L15.256492566308594,42.86040841015625L35.924463466308595,31.94637581015625L26.849462466308594,27.57216069015625L6.181476716308594,38.48619341015625Z" fill="#111111" fill-opacity="1" style="mix-blend-mode:passthrough"/><path d="M15.265109528808594,43.048980712890625L36.302612528808595,54.158977712890625L25.483077528808593,60.08007471289062L4.445579528808594,48.970071312890624L15.265109528808594,43.048980712890625Z" fill="#FFFFFF" fill-opacity="1" style="mix-blend-mode:passthrough"/><path d="M25.483077528808593,60.25346031445312C25.456523528808592,60.25182331445313,25.430484528808595,60.24606931445312,25.405734528808594,60.23627131445312L4.368235647808594,49.12452741445313C4.3125813608085934,49.09655471445313,4.276414990408594,49.04065661445313,4.273704528808594,48.978432614453126C4.275403976408594,48.91593601445312,4.307479738808594,48.858207214453124,4.359642028808594,48.823746214453124L15.179172528808595,42.90093517345313C15.230564528808594,42.87518119815312,15.291063528808595,42.87518119815312,15.342454528808593,42.90093517345313L36.379955528808594,54.01267431445312C36.43564252880859,54.04060431445313,36.47173652880859,54.096550314453125,36.474487528808595,54.15876831445313C36.47276652880859,54.22124431445312,36.44071152880859,54.278993314453125,36.388549528808596,54.31345531445312L25.569015528808595,60.234550314453124C25.541688528808592,60.24572331445313,25.512556528808595,60.25208131445312,25.483077528808593,60.25346031445312ZM4.806516768808594,48.969835714453126L25.483077528808593,59.89252131445312L35.94167352880859,54.169080314453126L15.265109528808594,43.244685174453124L4.806516768808594,48.969835714453126Z" fill="#111111" fill-opacity="1" style="mix-blend-mode:passthrough"/><path d="M57.31437702929688,43.048980712890625L36.268280029296875,54.158977712890625L47.087813029296875,60.08007471289062L68.13390302929687,48.96836141289062L57.31437702929688,43.048980712890625Z" fill="#FFFFFF" fill-opacity="1" style="mix-blend-mode:passthrough"/><path d="M47.087813029296875,60.25346031445312C47.058508029296874,60.25191331445313,47.02954502929688,60.24606931445312,47.001876029296874,60.23627131445312L36.182345152296875,54.315176314453126C36.12865257229687,54.282089314453124,36.09607458114687,54.223478314453125,36.09640765190127,54.16048931445312C36.09610605239688,54.09732631445313,36.13320803629688,54.04000631445312,36.19093942629687,54.01439431445313L57.22843902929688,42.90093517345313C57.27982502929687,42.87518119815312,57.34032802929687,42.87518119815312,57.39171602929687,42.90093517345313L68.21125002929688,48.82203631445312C68.26496102929687,48.85504961445312,68.29752702929687,48.913685814453125,68.29718802929688,48.97671221445312C68.29752702929687,49.039859314453125,68.26040302929687,49.097205114453125,68.20265202929687,49.122817514453125L47.173751029296874,60.23627131445312C47.146334029296874,60.24684131445312,47.117203029296874,60.25268331445312,47.087813029296875,60.25346031445312ZM36.629218579296875,54.169080314453126L47.087813029296875,59.89252131445312L67.76437402929687,48.969835714453126L57.31437702929688,43.244685174453124L36.629218579296875,54.169080314453126Z" fill="#111111" fill-opacity="1" style="mix-blend-mode:passthrough"/><path d="M36.3027567890625,31.9375L15.2652587890625,43.04922L36.2683827890625,54.159217999999996L57.3144797890625,43.0475L36.3027567890625,31.9375Z" fill="#111111" fill-opacity="1" style="mix-blend-mode:passthrough"/><rect x="36.1051025390625" y="54.16156005859375" width="0.34375" height="20.384374618530273" rx="0" fill="#111111" fill-opacity="1" style="mix-blend-mode:passthrough"/><path d="M24.486358048339845,42.041242806640625C24.436085048339844,42.03995180664062,24.390366048339843,42.011422806640624,24.367163048339844,41.966733806640626C24.343958048339843,41.92213480664063,24.346796048339844,41.86833380664062,24.374638048339843,41.826398806640626C24.400420048339846,41.792021806640626,26.866825048339845,38.225615806640626,24.116825048339845,34.977179006640625C23.130351048339843,33.80740550664063,21.676718048339843,33.134112406640625,20.146514048339846,33.138116806640625L20.112140048339846,33.138116806640625C20.369952048339844,34.04905510664062,20.326983048339844,34.856866806640625,19.95745104833984,35.47561550664062C19.60510604833984,36.059991806640625,18.986357648339844,36.403741806640625,18.367607148339843,36.35217860664062C17.817633648339843,36.309209806640624,17.387946148339843,35.96546030664062,17.181696848339843,35.432646706640625C16.880915648339844,34.64202310664062,17.198882548339846,33.87718010664062,18.032451648339844,33.38733530664062C18.479327248339843,33.12092880664063,19.080889748339843,32.94905380664063,19.75120204833984,32.89749050664062C19.556124048339846,32.37766410664062,19.302350048339843,31.881761106640624,18.994952248339843,31.419367106640625C17.998076448339845,29.898272306640624,16.193415648339844,28.849836346640625,14.027789148339844,28.540460826640626C12.197320448339845,28.274054050640625,10.435601548339843,28.592023846640625,9.550447698339843,29.339678506640624C9.493501778339844,29.387236806640626,9.408775925339844,29.379578806640623,9.361279249339844,29.322587006640624C9.313782572339845,29.265584706640624,9.321527123439843,29.180866706640625,9.378572702339843,29.133429046640625C10.323882578339845,28.334211346640625,12.162945748339844,27.999052996640625,14.070757848339845,28.274054050640625C16.313727348339846,28.600615496640625,18.187137648339842,29.692022806640626,19.226982148339843,31.273272306640624C19.559732048339846,31.775946806640626,19.833700048339843,32.31515410664063,20.043388048339843,32.880304306640625C21.694333048339843,32.84240530664063,23.273779048339843,33.55316780664062,24.340263048339843,34.81389810664062C27.227764048339843,38.225615806640626,24.641045048339844,41.955304806640626,24.615264048339846,41.998273806640626C24.574700048339842,42.018981806640625,24.53130104833984,42.033506806640624,24.486358048339845,42.041242806640625ZM19.828545048339844,33.146711306640626C19.24502754833984,33.17426970664062,18.675178548339844,33.332877206640624,18.161357848339843,33.61077310664062C17.439509348339843,34.04046060664062,17.173102348339846,34.659209206640625,17.430914848339846,35.32952310664062C17.572443948339846,35.745883006640625,17.946686748339843,36.039213206640625,18.384795148339844,36.07717800664062C18.900420148339844,36.120146706640625,19.424640048339846,35.82796000664062,19.716826048339843,35.32952310664062C20.060576048339843,34.764053306640626,20.086357048339842,34.007803906640625,19.828545048339844,33.148428906640625L19.828545048339844,33.146711306640626Z" fill="#111111" fill-opacity="1" style="mix-blend-mode:passthrough"/><path d="M7.178376982519531,31.524310383984375C6.974541662519531,31.586256283984376,6.755353572519532,31.574076883984375,6.559628602519531,31.489935883984376C6.332950352519531,31.394958283984376,6.151432032519531,31.216516283984376,6.0525978805195315,30.991499383984376C5.958063483519531,30.763136183984376,5.958063483519531,30.506579873984375,6.0525978805195315,30.278216603984376C6.1475715625195315,30.051537033984374,6.326014872519531,29.870018723984376,6.5510356425195315,29.771185874984376C7.023190982519531,29.574642653984377,7.565293782519531,29.797855138984374,7.762167482519532,30.269871473984374C7.959033282519531,30.741885183984376,7.736197082519531,31.284142683984374,7.264314482519531,31.481341583984374C7.239563682519531,31.502395883984374,7.210079082519531,31.517134883984376,7.178376982519531,31.524310383984375ZM6.731503602519531,30.003212923984375C6.705722092519531,30.011807203984375,6.688534852519531,30.020401473984375,6.662753342519531,30.028993133984375C6.504493592519531,30.096952673984376,6.378367302519531,30.223078963984374,6.310409072519532,30.381337403984375C6.241677162519531,30.540372133984373,6.241677162519531,30.720736483984375,6.310409072519532,30.879771183984374C6.378365992519531,31.038034883984373,6.504493592519531,31.164155983984376,6.662753342519531,31.232115483984376C6.8217906925195315,31.300848683984373,7.002153782519532,31.300848683984373,7.161189782519531,31.232115483984376C7.486986782519532,31.104024883984376,7.653292682519531,30.741342283984373,7.537749882519531,30.410883663984375C7.422207082519531,30.080425023984375,7.066133482519531,29.900383233984375,6.731503602519531,30.003212923984375Z" fill="#111111" fill-opacity="1" style="mix-blend-mode:passthrough"/><path d="M7.1781897241210935,29.385086507421875C6.974354384121094,29.447029807421874,6.755166294121094,29.434853107421876,6.559441324121094,29.350712107421874C6.0020552873210935,29.116686607421876,5.817326904121094,28.418310637421875,6.186105724121094,27.939302447421873C6.554884554121093,27.460294247421874,7.277275724121093,27.460294247421874,7.646059724121094,27.939302447421873C8.014834624121093,28.418313267421876,7.830111524121094,29.116686607421876,7.272721524121094,29.350712107421874C7.242712424121094,29.365931007421874,7.210967024121094,29.377473107421874,7.1781897241210935,29.385086507421875ZM6.7227220541210935,27.872588637421874C6.696940544121094,27.881182907421874,6.6797533041210935,27.889777187421874,6.653971794121094,27.898368837421874C6.495712044121094,27.966328387421875,6.369585754121093,28.092454667421876,6.301627514121094,28.250713107421873C6.232895614121094,28.409750457421875,6.232895614121094,28.590112207421875,6.301627514121094,28.749149607421874C6.369585754121093,28.907402707421873,6.495712044121094,29.033534307421874,6.653971794121094,29.101493807421875C6.813009144121094,29.170227007421875,6.993372204121094,29.170227007421875,7.152408224121094,29.101493807421875C7.3106706241210935,29.033534307421874,7.436792924121094,28.907410607421873,7.504752524121094,28.749149607421874C7.5734857241210936,28.590112207421875,7.5734857241210936,28.409750457421875,7.504752524121094,28.250713107421873C7.436792924121094,28.092452047421876,7.3106706241210935,27.966325757421874,7.152408224121094,27.898368837421874C7.016996624121093,27.838169577421876,6.864363674121094,27.829011437421876,6.7227220541210935,27.872588637421874Z" fill="#111111" fill-opacity="1" style="mix-blend-mode:passthrough"/><ellipse cx="6.911845445632935" cy="29.54002070426941" rx="1.4617187976837158" ry="1.0578124523162842" fill="#FFFFFF" fill-opacity="1" style="mix-blend-mode:passthrough"/><path d="M7.453251097949218,30.40806532734375C7.280473897949219,30.46017912734375,7.100898997949219,30.48625302734375,6.920438897949219,30.48541112734375C6.164188627949219,30.48541112734375,5.571220397949219,30.07290962734375,5.571220397949219,29.54009866734375C5.571220397949219,29.00728511734375,6.164188627949219,28.59478616714375,6.920438897949219,28.59478616714375C7.250713897949218,28.59090209004375,7.5753857979492185,28.68025946634375,7.8571583979492186,28.85259866734375C8.123563797949219,29.03306793734375,8.269657397949219,29.27369189734375,8.269657397949219,29.54009866734375C8.269657397949219,29.80650282734375,8.123563797949219,30.04712942734375,7.8571583979492186,30.22759862734375C7.730924597949219,30.30502842734375,7.595150897949219,30.36569192734375,7.453251097949218,30.40806532734375ZM6.464969877949219,28.92994451734375C6.104032637949219,29.04166221734375,5.846220137949219,29.27369451734375,5.846220137949219,29.54009866734375C5.846220137949219,29.90103462734375,6.336063627949219,30.21041012734375,6.920438897949219,30.21041012734375C7.196478497949219,30.21651292734375,7.468290497949219,30.14183952734375,7.702470797949219,29.99556632734375C7.891532897949219,29.86666012734375,7.994657497949219,29.70337942734375,7.994657497949219,29.54009866734375C7.980942697949219,29.34850430734375,7.870899697949219,29.17697286734375,7.702470797949219,29.08463358734375C7.468290497949219,28.93836569734375,7.196478497949219,28.86369228734375,6.920438897949219,28.86978983734375C6.766456597949219,28.86691283734375,6.612920197949219,28.88719081734375,6.464969877949219,28.92994451734375Z" fill="#111111" fill-opacity="1" style="mix-blend-mode:passthrough"/><path d="M7.212752820019531,30.322052051953126L7.186971310019532,28.749396800953125L6.791658282019531,28.732208251953125L6.765876770019531,30.347832251953125L7.212752820019531,30.322052051953126Z" fill="#111111" fill-opacity="1" style="mix-blend-mode:passthrough"/><ellipse cx="5.304954528808594" cy="29.7552490234375" rx="0.37890625" ry="0.37890625" fill="#111111" fill-opacity="1" style="mix-blend-mode:passthrough"/><ellipse cx="5.408027648925781" cy="29.08416748046875" rx="0.37890625" ry="0.37890625" fill="#111111" fill-opacity="1" style="mix-blend-mode:passthrough"/><path d="M37.402466539375,27.993177198730468C37.342789169375,27.99532519873047,37.289448019375,27.956224198730467,37.273560289375,27.89864519873047C37.264966009375,27.87286519873047,36.534497259375,25.44942619873047,36.921216009375,22.71661519873047C37.273560289375,20.18145919873047,38.674335209375,16.85571339873047,43.332159009375,15.394774398730469C43.987553609375,15.181384098730469,44.660461409375,15.026094398730468,45.343093909375,14.930712698730469C45.566497809375,13.555712698730469,46.400092109375,12.068993598730469,48.264937609374996,11.046337998730468C52.707901609375,8.605712198730469,55.707122609375,10.79711842873047,55.732902609375,10.814305658730468C55.792289609375004,10.85939740873047,55.803802609375,10.944045898730469,55.758682609375,11.003377098730468C55.713653609375,11.062700398730469,55.629005609375,11.07424119873047,55.569623609375,11.02914939873047C55.543838609375,11.011962198730469,52.673529609375,8.923680658730468,48.393843609375,11.27836899873047C46.649308209375,12.240868598730469,45.850090009375,13.615868598730469,45.618058209375,14.896336998730469C47.671966609375,14.690087298730468,48.660247609375,15.377587298730468,49.098526609375,15.901806798730469C49.656349609375,16.53988359873047,49.781390609375,17.44854259873047,49.416496609375,18.213524798730468C49.123536609375,18.83077809873047,48.482529609375,19.205810498730468,47.800872609375,19.15880299873047C46.649308209375,19.09005169873047,45.703995709375,18.127587298730468,45.377471009375,16.70102449873047C45.269581809375,16.219044698730468,45.240560509375,15.722763998730468,45.291533509375,15.231493998730468C44.649603809375,15.321400598730468,44.016926809375,15.468070998730468,43.400908509375,15.669774498730469C39.765753009375,16.80415059873047,37.677467589375,19.193178198730468,37.179033759375,22.768178198730467C36.809503555275,25.44083519873047,37.514189479375,27.81270819873047,37.522781129375,27.83849119873047C37.545943979375,27.912311198730468,37.502943749375,27.990429198730467,37.428251979375,28.01036619873047C37.428246739375,27.98458319873047,37.411058189375,27.993177198730468,37.402466539375,27.993177198730468ZM45.583685909375,15.17993069873047C45.527137709375,15.66168879873047,45.550342609375,16.14947749873047,45.652435309375,16.62368109873047C45.944624909375,17.929932598730467,46.795402509375,18.81505299873047,47.826652609375,18.87520789873047C48.399256609375,18.91792009873047,48.939030609374996,18.60364819873047,49.184464609375,18.08461859873047C49.502177609374996,17.41946319873047,49.394067609375,16.62912849873047,48.909468609375,16.07368179873047C48.256339609375004,15.326024498730469,47.096183609375004,15.016650198730469,45.583685909375,15.17993069873047Z" fill="#111111" fill-opacity="1" style="mix-blend-mode:passthrough"/><path d="M58.9041490575,12.189350148730469C58.4480938875,12.189280648730469,58.0541105275,11.870513548730468,57.9588418005,11.424514748730468C57.8447113035,10.89747881873047,58.1795077275,10.37773763873047,58.7065620375,10.26372253873047C59.2336268375,10.149707436730468,59.7532906375,10.48460745873047,59.8672008375,11.011686678730468C59.9811005375,11.538768548730468,59.6460943375,12.058372048730469,59.1189928375,12.17217074873047C59.0478205375,12.182509048730468,58.9760661375,12.18824994873047,58.9041490575,12.189350148730469ZM58.9127459575,10.51357280873047C58.8636035875,10.514547108730468,58.8146710375,10.520303728730468,58.7666511575,10.53076004873047C58.3887233775,10.61295508873047,58.1497411775,10.986845378730468,58.2338376075,11.36434964873047C58.2721328775,11.546846148730468,58.3840813675,11.70543634873047,58.5432052575,11.802631348730468C58.6971468975,11.905790248730469,58.8871440875,11.940053248730468,59.0674219375,11.897171048730469C59.4453497375,11.81497204873047,59.6843266375,11.44108304873047,59.6002354375,11.06357359873047C59.5250506375,10.743806008730468,59.2412166375,10.516730428730469,58.9127459575,10.51357280873047Z" fill="#111111" fill-opacity="1" style="mix-blend-mode:passthrough"/><path d="M58.50037812953125,14.414552936328125C58.04432820953125,14.414475536328125,57.65033959953125,14.095708536328125,57.55507087753125,13.649709736328125C57.50100326553125,13.398729086328125,57.54727649653125,13.136559126328125,57.68397187953125,12.919242266328125C57.82304858953125,12.703106876328125,58.04271792953125,12.551501989328125,58.29413127953125,12.498149037328124C58.54510931953125,12.444090604328125,58.80728051953125,12.490355968328124,59.02459481953125,12.627055286328124C59.24073931953125,12.766122816328124,59.39234161953125,12.985794786328125,59.44569061953125,13.237210746328126C59.49975301953125,13.488190036328126,59.45348501953125,13.750360036328125,59.31678441953125,13.967678236328124C59.17771291953125,14.183810936328126,58.95804881953125,14.335422436328125,58.70663551953125,14.388771436328124C58.63920311953125,14.405796036328125,58.56992961953125,14.414458536328125,58.50037812953125,14.414552936328125ZM58.50037812953125,12.738771676328126C58.44844007953125,12.740240336328124,58.39669608953125,12.745987776328125,58.34569167953125,12.755958916328124C58.16421269953125,12.796564696328126,58.00644206953125,12.907930966328125,57.90741776953125,13.065335746328126C57.80426024953125,13.219277386328125,57.76999854953125,13.409273266328125,57.81288337953125,13.589553736328124C57.85118388953125,13.772050236328125,57.96312713953125,13.930639136328125,58.12226151953125,14.027834136328124C58.27620315953125,14.130994336328126,58.46620034953125,14.165257336328125,58.64647291953125,14.122365936328125C58.82795711953125,14.081769336328126,58.98571731953125,13.970403036328126,59.08475211953125,13.812990436328125C59.18790431953125,13.659051436328125,59.22216601953125,13.469051596328125,59.17928651953125,13.288772466328124C59.14099121953125,13.106277226328125,59.02904791953125,12.947688336328126,58.86990831953125,12.850491996328126C58.76240251953125,12.773401856328125,58.63263611953125,12.733567116328125,58.50037812953125,12.737053866328125L58.50037812953125,12.738771676328126Z" fill="#111111" fill-opacity="1" style="mix-blend-mode:passthrough"/><g transform="matrix(0.1815490424633026,-0.9833818674087524,0.9833818674087524,0.1815490424633026,34.13381378289341,66.95275010513433)"><ellipse cx="58.148681640625" cy="14.250683546066284" rx="1.109375" ry="1.5304687023162842" fill="#FFFFFF" fill-opacity="1" style="mix-blend-mode:passthrough"/></g><path d="M58.88685896875,13.3663869046875C58.76284126875,13.3673494046875,58.63903856875,13.3558347046875,58.51733396875,13.3320124046875C58.17436027875,13.2741512046875,57.85521554875,13.1190504046875,57.59780168875,12.8851377046875C57.35717773475,12.6531067046875,57.24545478775,12.3695127046875,57.29702043575,12.0945129946875C57.34857559175,11.8195119846875,57.54623603875,11.5960752646875,57.85561418875,11.4671690346875C58.51534076875,11.2140523346875,59.26116756875,11.3499556770875,59.78920266875,11.8195119846875C60.02982666875,12.0515442446875,60.14154436875,12.3351369546875,60.08998396875,12.6101379046875C60.03842876875,12.8851377046875,59.84076306875,13.1085744046875,59.53139016875,13.2374806046875C59.32805446875,13.3254375046875,59.10839556875,13.3693688046875,58.88685896875,13.3663869046875ZM58.50873186875,11.6132611946875C58.32317736875,11.6109349446875,58.13903903875,11.6460057246875,57.96733188875,11.7163859346875C57.74389648875,11.8109190146875,57.59780168875,11.9656041246875,57.56341933875,12.1460734046875C57.52904748875,12.3265439846875,57.60638808875,12.5156062046875,57.78685998875,12.6874812046875C58.00417422875,12.8834697046875,58.27215718875,13.0144819046875,58.56029746875,13.0656056046875C58.84788706875,13.1289245046875,59.14801266875,13.1019143046875,59.41967246875,12.9882624046875C59.64310786875,12.8937306046875,59.78920266875,12.7390442046875,59.82357456875,12.5585749046875C59.85795166875,12.3781056046875,59.78060576875,12.1890421546875,59.60013916875,12.0171671546875C59.38283016875,11.8211799546875,59.11484196875,11.6901638246875,58.82670166875,11.6390440146875C58.72158236875,11.6219262746875,58.61524626875,11.6133031546875,58.50873186875,11.6132611946875Z" fill="#111111" fill-opacity="1" style="mix-blend-mode:passthrough"/><path d="M58.543306346875,11.475189208984375L58.268310546875,13.125188908984375L58.672212596875,13.211126408984375L59.015962596875,11.543938159984375L58.543306346875,11.475189208984375Z" fill="#111111" fill-opacity="1" style="mix-blend-mode:passthrough"/><ellipse cx="60.1845703125" cy="13.1171875" rx="0.37890625" ry="0.37890625" fill="#111111" fill-opacity="1" style="mix-blend-mode:passthrough"/><ellipse cx="60.416748046875" cy="12.438873291015625" rx="0.37890625" ry="0.37890625" fill="#111111" fill-opacity="1" style="mix-blend-mode:passthrough"/><path d="M57.09942626953125,63.63041306875C58.54317526953125,60.23330636875,60.67270896953125,57.92760181475,61.99270776953125,57.98088264465Q63.31270646953125,58.03416347475,61.99270776953125,60.797056168750004Q64.80802106953125,58.20947932875,66.14606856953125,58.94853973875Q67.48411526953124,59.68760016875,64.82606456953125,62.06549456875Q66.26981926953125,61.02735756875,67.36036626953126,61.20611956875Q68.45091226953124,61.384865768750004,66.26981926953125,63.61236956875L57.09942626953125,63.63041306875Z" fill="#0064FF" fill-opacity="1" style="mix-blend-mode:passthrough"/><path d="M60.84873962371875,62.8905281765625L60.81350755671875,62.8905281765625C60.76762247071875,62.8784169765625,60.74266576771875,62.8289127765625,60.76022672651875,62.7848267765625C61.01025008671875,62.1949557765625,61.30322122671875,61.6242299065625,61.63678502671875,61.0772490505625C61.66455316671875,61.0377736091625,61.71613979671875,61.0230870245625,61.76053523671875,61.0420169830625C61.81295583671875,61.0600657465625,61.81295583671875,61.1124863625625,61.79577253671875,61.1657671965625C61.46764278671875,61.7005004865625,61.18036794671875,62.2592463765625,60.93639230671875,62.8372525765625C60.90116023671875,62.8552908765625,60.86334752671875,62.8905281765625,60.84873962371875,62.8905281765625Z" fill="#111111" fill-opacity="1" style="mix-blend-mode:passthrough"/><path d="M63.76990509009375,63.4191355828125L63.75271654109375,63.4191355828125C63.70683145509375,63.4070348828125,63.68187475209375,63.3575200828125,63.69943571089375,63.3134340828125C63.69943571089375,63.2962455728125,63.82318592109375,62.9267153728125,64.45654488109375,62.3277335168125C64.49025583109375,62.2932620048125,64.54572391109375,62.2932620048125,64.57943487109375,62.3277335168125C64.61449385109375,62.3615336418125,64.61449385109375,62.4176888428125,64.57943487109375,62.4514837228125Q63.97787237109375,63.0315618528125,63.85841799109375,63.3667254828125C63.84037447109375,63.3839034828125,63.80513716109375,63.4191355828125,63.76990509009375,63.4191355828125Z" fill="#111111" fill-opacity="1" style="mix-blend-mode:passthrough"/><path d="M15.223064278808593,63.28666306875C13.780174278808595,59.88955636875,11.650625278808594,57.58385181475,10.330625078808595,57.63713264465Q9.010624878808594,57.69041347475,10.330625078808595,60.453306168750004Q7.513593478808594,57.86572932875,6.176405978808594,58.60478973875Q4.839218628808593,59.34385016875,7.496406278808594,61.72174456875Q6.054374978808593,60.68360756875,4.962107328808594,60.86236956875Q3.8698410388085938,61.041115768750004,6.0535160788085935,63.26861956875L15.223064278808593,63.28666306875Z" fill="#0064FF" fill-opacity="1" style="mix-blend-mode:passthrough"/><path d="M11.47454440705078,62.54773230859375C11.43812429705078,62.54766420859375,11.404857877050782,62.52704000859375,11.38860690705078,62.49445150859375C11.139673237050781,61.91421600859375,10.843931317050782,61.35521316859375,10.504306674050781,60.82296609859375C10.48076748805078,60.77916860559375,10.49592483045078,60.72459745359375,10.538681149050781,60.69921588859375C10.58279466605078,60.67674541459375,10.63677048705078,60.69211387629375,10.662431357050782,60.73444795559375C11.00060701705078,61.27938842859375,11.294869777050781,61.85038180859375,11.54243442705078,62.44203090859375C11.564418427050782,62.48621130859375,11.537751827050782,62.53911970859375,11.489153627050781,62.54772190859375L11.47454440705078,62.54773230859375Z" fill="#111111" fill-opacity="1" style="mix-blend-mode:passthrough"/><path d="M8.552625416425782,63.075881040625C8.510600806425781,63.076568140625,8.474247576425782,63.046759640625,8.466687916425782,63.005416840625Q8.342937706425781,62.653930190625,7.744813442425781,62.090180400625C7.713613629325781,62.057004450625,7.706726670225781,62.007757186625,7.727626204425781,61.967290401625C7.760724783425781,61.936044693025,7.809830427425781,61.928832531025,7.850516196425781,61.949241638625L7.868563656425781,61.967290401625Q8.501922606425781,62.583460810625,8.624812606425781,62.952991040625C8.638106586425781,62.996547240625,8.61511814642578,63.042920140625,8.572391986425782,63.058697740625L8.552625416425782,63.075881040625Z" fill="#111111" fill-opacity="1" style="mix-blend-mode:passthrough"/></svg>