<svg xmlns="http://www.w3.org/2000/svg" xmlns:xlink="http://www.w3.org/1999/xlink" fill="none" version="1.1" width="216" height="28" viewBox="0 0 216 28"><g><path d="M0.84000003,24.4Q1.848,22.191999,2.256,19.864Q2.664,17.535999,2.664,14.776L2.664,10.768L5.8800001,10.768L4.6079998,7.3359995L7.8720002,7.3359995L9.1440001,10.768L14.856,10.768L16.128,7.3359995L19.392,7.3359995L18.120001,10.768L22.800001,10.768L22.800001,13.84L5.8320003,13.84L5.8320003,14.776Q5.8320003,17.464001,5.4840002,19.792Q5.1360002,22.120001,4.296,24.4L0.84000003,24.4ZM1.632,3.7360001L10.92,3.7360001L10.92,2.3439999L14.088,2.3439999L14.088,3.7360001L22.368,3.7360001L22.368,6.8079996L1.632,6.8079996L1.632,3.7360001ZM27.048,3.0879993L27.048,11.92L44.952,11.92L44.952,3.0879993L27.048,3.0879993ZM35.279999,24.16L35.279999,13.432L25.368,13.432L25.368,24.16L35.279999,24.16ZM28.368,16.48L32.279999,16.48L32.279999,21.112L28.368,21.112L28.368,16.48ZM30.191999,6.0640001L41.807999,6.0640001L41.807999,8.9440002L30.191999,8.9440002L30.191999,6.0640001ZM46.632,24.16L46.632,13.432L36.720001,13.432L36.720001,24.16L46.632,24.16ZM39.720001,16.48L43.632,16.48L43.632,21.112L39.720001,21.112L39.720001,16.48ZM49.200001,20.752001L58.584,20.752001L58.584,15.976L50.807999,15.976L50.807999,13L58.584,13L58.560001,8.5839996L53.543999,8.5839996Q53.040001,10.24,52.439999,11.584L48.863998,11.584Q50.880001,7.2639999,51.456001,3.039999L54.647999,3.039999Q54.48,4.4319992,54.264,5.5599995L58.560001,5.5599995L58.560001,2.5599995L61.728001,2.5599995L61.728001,5.5599995L70.248001,5.5599995L70.248001,8.5839996L61.728001,8.5839996L61.728001,13L69.192001,13L69.192001,15.976L61.728001,15.976L61.728001,20.752001L70.800003,20.752001L70.800003,23.92L49.200001,23.92L49.200001,20.752001ZM94.056,12.736L94.056,23.848L89.015999,23.848L89.015999,20.848L91.007996,20.848L91.007996,15.688L87.528,15.688L87.528,24.4L84.456001,24.4L84.456001,12.736L94.056,12.736ZM72.959999,9.0640001Q75.816002,7.96,77.484001,6.4359999Q79.152,4.9120007,80.160004,2.7999992L87.839996,2.7999992Q88.848,4.9120007,90.515999,6.4359999Q92.183998,7.96,95.040001,9.0640001L95.040001,12.256Q92.255997,11.488,89.903999,9.8800001L89.903999,11.344L78.096001,11.344L78.096001,9.8800001Q75.744003,11.488,72.959999,12.256L72.959999,9.0640001ZM73.991997,13.024L82.487999,13.024L82.487999,23.68L73.991997,23.68L73.991997,13.024ZM79.512001,20.704L79.512001,15.952L76.968002,15.952L76.968002,20.704L79.512001,20.704ZM88.152,8.4639997Q86.879997,7.2639999,86.015999,5.8239994L81.984001,5.8239994Q81.120003,7.2639999,79.848,8.4639997L88.152,8.4639997ZM101.544,14.32Q101.544,19.719999,100.104,24.424L96.720001,24.424Q98.472,19.888,98.472,14.32L98.447998,3.1119995L117.672,3.1119995L117.672,24.4L113.568,24.4L113.568,21.256001L114.6,21.256001L114.576,6.0640001L101.544,6.0640001L101.544,14.32ZM102.432,11.632L106.584,11.632L106.584,10.432L102.912,10.432L102.912,7.6479998L106.584,7.6479998L106.584,6.5199995L109.608,6.5199995L109.608,7.6479998L113.256,7.6479998L113.256,10.432L109.608,10.432L109.608,11.632L113.736,11.632L113.736,14.416L102.432,14.416L102.432,11.632ZM103.08,15.52L112.92,15.52L112.92,23.104L103.08,23.104L103.08,15.52ZM109.872,20.296L109.872,18.304001L106.128,18.304001L106.128,20.296L109.872,20.296ZM128.136,20.32L131.39999,20.32L132.384,23.848Q132.912,21.568001,133.12801,19.264Q133.34399,16.959999,133.34399,14.248L133.34399,3.0879993L142.632,3.0879993L142.632,24.4L139.632,24.4L139.632,18.351999L136.224,18.351999Q136.056,21.184,135.43201,24.4L129.28799,24.4L128.136,20.32ZM120.96,16.84L122.424,16.84L122.424,6.5439997L121.2,6.5439997L121.2,3.8080006L122.424,3.8080006L122.424,2.6800003L125.4,2.6800003L125.4,3.8080006L128.592,3.8080006L128.592,2.6800003L131.56799,2.6800003L131.56799,3.8080006L132.79199,3.8080006L132.79199,6.5439997L131.56799,6.5439997L131.56799,16.84L132.936,16.84L132.936,19.624001L120.96,19.624001L120.96,16.84ZM122.448,20.32L125.712,20.32L124.56,24.4L121.296,24.4L122.448,20.32ZM128.592,16.84L128.592,15.04L125.4,15.04L125.4,16.84L128.592,16.84ZM128.592,12.592L128.592,10.792L125.4,10.792L125.4,12.592L128.592,12.592ZM128.592,8.3439999L128.592,6.5439997L125.4,6.5439997L125.4,8.3439999L128.592,8.3439999ZM139.632,15.4L139.632,12.256L136.34399,12.256L136.34399,14.248L136.34399,15.4L139.632,15.4ZM139.632,9.3039999L139.632,6.1599998L136.34399,6.1599998L136.34399,9.3039999L139.632,9.3039999ZM155.52,11.608L150.62399,11.608L150.62399,8.9440002L152.472,8.9440002L152.472,5.9440002L150.576,5.9440002Q150.43201,7.4560003,149.952,8.8240004Q149.472,10.191999,148.584,11.608L144.72,11.608Q146.03999,10.191999,146.7,8.8240004Q147.36,7.4560003,147.528,5.9440002L145.17599,5.9440002L145.17599,3.2800007L147.60001,3.2800007L147.60001,2.3199997L150.62399,2.3199997L150.62399,3.2800007L155.52,3.2800007L155.52,11.608ZM145.224,20.848L161.688,20.848L161.688,23.632L145.224,23.632L145.224,20.848ZM146.71201,12.448L163.752,12.448L163.34399,16.888L166.84799,16.888Q166.84799,20.896,166.12801,24.4L162.76801,24.4Q163.392,22,163.584,19.576L148.248,19.576L148.65601,15.304L146.71201,15.304L146.71201,12.448ZM160.17599,16.888L160.32001,15.304L151.82401,15.304L151.67999,16.888L160.17599,16.888ZM157.2,2.8479996L165.98399,2.8479996L165.98399,11.608L157.2,11.608L157.2,2.8479996ZM162.936,8.8719997L162.936,5.5839996L160.248,5.5839996L160.248,8.8719997L162.936,8.8719997ZM173.856,16.624001L173.856,19.576L168.96001,20.296L168.96001,17.344L173.856,16.624001ZM169.2,3.039999L177.144,3.039999L176.35201,11.944L177.43201,11.944L177.43201,24.4L171.96001,24.4L171.96001,21.591999L174.552,21.591999L174.552,14.799999L169.272,14.799999L170.256,6.0159998L169.2,6.0159998L169.2,3.039999ZM173.664,11.944L174.216,6.0159998L172.776,6.0159998L172.17599,11.944L173.664,11.944ZM177.81599,21.568001Q179.92799,20.848,181.12801,19.672001L178.728,18.591999L178.728,15.375999L182.616,17.128Q182.92799,16.191999,183,14.632L178.248,14.632L178.248,4.7679996L182.952,4.7679996L182.952,2.5359993L186.024,2.5359993L186.024,4.7679996L190.728,4.7679996L190.728,14.632L185.92799,14.632Q185.856,16.672001,185.256,18.327999L191.064,20.944L191.064,24.16L183.864,20.92Q181.752,23.632,177.81599,24.639999L177.81599,21.568001ZM183.07201,11.68L183.07201,7.7200003L181.17599,7.7200003L181.17599,11.68L183.07201,11.68ZM187.8,11.68L187.8,7.7200003L185.90399,7.7200003L185.90399,11.68L187.8,11.68ZM192.96001,24.4Q193.44,22.408001,193.692,20.511999Q193.944,18.615999,194.01601,16.431999L192.72,16.431999L192.72,12.904L194.03999,12.904L194.03999,4.4799995L197.03999,4.4799995L197.28,2.6800003L200.424,2.6800003L200.18401,4.4799995L203.088,4.4799995L203.088,24.4L200.28,24.4L200.28,16.431999L196.8,16.431999Q196.65601,20.608,195.96001,24.4L192.96001,24.4ZM200.28,12.904L200.28,7.5039997L196.84801,7.5039997L196.84801,12.904L200.28,12.904ZM199.2,17.176001L199.752,22.576L197.75999,22.576L197.20801,17.176001L199.2,17.176001ZM199.29601,8.1280003L199.82401,12.28L197.832,12.28L197.304,8.1280003L199.29601,8.1280003ZM203.20801,7.5760002Q205.608,5.7759991,206.664,2.7999992L211.584,2.7999992Q212.64,5.7759991,215.04001,7.5760002L215.04001,11.32Q214.104,10.768,213.528,10.335999L213.528,19.384001L208.992,19.384001L208.992,16.431999L210.60001,16.431999L210.60001,12.904L207.76801,12.904L207.76801,21.063999L215.04001,21.063999L215.04001,24.16L204.744,24.16L204.744,10.312Q203.976,10.888,203.20801,11.32L203.20801,7.5760002ZM212.88,9.8319998Q210.98399,8.2480001,209.75999,5.9200001L208.48801,5.9200001Q207.26401,8.2480001,205.368,9.8319998L212.88,9.8319998Z" fill="#FFFFFF" fill-opacity="1"/></g></svg>