<svg xmlns="http://www.w3.org/2000/svg" xmlns:xlink="http://www.w3.org/1999/xlink" fill="none" version="1.1" width="16" height="16" viewBox="0 0 16 16"><defs><clipPath id="master_svg0_19_7325"><rect x="0" y="0" width="16" height="16" rx="0"/></clipPath></defs><g clip-path="url(#master_svg0_19_7325)"><path d="M3.7070001,3L5.5,3C5.7761426,3,6,2.77614224,6,2.5C6,2.22385757,5.7761426,2,5.5,2L2.5,2C2.22385757,2,2,2.22385757,2,2.5L2,5.5C2,5.7761426,2.22385757,6,2.5,6C2.77614224,6,3,5.7761426,3,5.5L3,3.7070001L5.14625,5.85325C5.3405211,6.0542569,5.6618559,6.0569377,5.8594542,5.8591998C6.0570521,5.6614623,6.0541444,5.3401294,5.8529997,5.1460004L3.7070001,3ZM13,3.7070001L13,5.5C13,5.7761426,13.223857,6,13.5,6C13.776142,6,14,5.7761426,14,5.5L14,2.5C14,2.22385757,13.776142,2,13.5,2L10.5,2C10.2238569,2,10,2.22385757,10,2.5C10,2.77614224,10.2238569,3,10.5,3L12.293,3L10.1467505,5.14625C9.945744000000001,5.3405211,9.9430633,5.6618559,10.1408005,5.8594542C10.3385382,6.0570526,10.6598721,6.0541444,10.8540001,5.8529997L13,3.7070001ZM3.7070001,13L5.5,13C5.7761426,13,6,13.223857,6,13.5C6,13.776142,5.7761426,14,5.5,14L2.5,14C2.22385757,14,2,13.776142,2,13.5L2,10.5C2,10.2238569,2.22385757,10,2.5,10C2.77614224,10,3,10.2238569,3,10.5L3,12.293L5.14625,10.1467505C5.3405211,9.945744000000001,5.6618559,9.9430633,5.8594542,10.1408005C6.0570521,10.3385372,6.0541444,10.6598701,5.8529997,10.8540001L3.7070001,13ZM13,12.293L13,10.5C13,10.2238569,13.223857,10,13.5,10C13.776142,10,14,10.2238569,14,10.5L14,13.5C14,13.776142,13.776142,14,13.5,14L10.5,14C10.2238569,14,10,13.776142,10,13.5C10,13.223857,10.2238569,13,10.5,13L12.293,13L10.1467505,10.8537502C9.945744000000001,10.6594782,9.9430633,10.3381433,10.1408005,10.1405458C10.3385372,9.9429479,10.6598701,9.9458561,10.8540001,10.1470003L13,12.293Z" fill="#231815" fill-opacity="1" style="mix-blend-mode:passthrough"/></g></svg>