<svg xmlns="http://www.w3.org/2000/svg" xmlns:xlink="http://www.w3.org/1999/xlink" fill="none" version="1.1" width="16" height="16" viewBox="0 0 16 16"><defs><clipPath id="master_svg0_19_21566"><rect x="0" y="0" width="16" height="16" rx="0"/></clipPath></defs><g clip-path="url(#master_svg0_19_21566)"><g><path d="M15,4.5L11.5,1L1.69999999,1C1.27999997,1,1,1.27999997,1,1.69999999L1,14.3C1,14.72,1.27999997,15,1.69999999,15L14.3,15C14.72,15,15,14.72,15,14.3L15,4.5ZM2.4,2.4L10.9399996,2.4L13.599999,5.0599999L13.599999,13.599999L11.5,13.599999L11.5,10.7299995C11.429999,10.3799992,11.15,10.0999994,10.8000002,10.0999994L5.1300001,10.0999994C4.779999999999999,10.1699991,4.5,10.4499998,4.5,10.8000002L4.5,13.599999L2.4,13.599999L2.4,2.4ZM5.1999998,4.5C4.779999999999999,4.5,4.5,4.779999999999999,4.5,5.1999998L4.5,7.3699999C4.5699999,7.7199998,4.8499999,8,5.1999998,8C5.6199999,8,5.9000001,7.7199998,5.9000001,7.3000002L5.9000001,5.1300001C5.8299999,4.779999999999999,5.5500002,4.5,5.1999998,4.5ZM5.9000001,11.5L10.0999994,11.5L10.0999994,13.599999L5.9000001,13.599999L5.9000001,11.5Z" fill-rule="evenodd" fill="#000000" fill-opacity="1" style="mix-blend-mode:passthrough"/></g></g></svg>