<svg xmlns="http://www.w3.org/2000/svg" xmlns:xlink="http://www.w3.org/1999/xlink" fill="none" version="1.1" width="32" height="32" viewBox="0 0 32 32"><defs><filter id="master_svg0_36_38118" filterUnits="objectBoundingBox" color-interpolation-filters="sRGB" x="-0.4" y="-0.35" width="1.8" height="1.8"><feFlood flood-opacity="0" result="BackgroundImageFix"/><feColorMatrix in="SourceAlpha" type="matrix" values="0 0 0 0 0 0 0 0 0 0 0 0 0 0 0 0 0 0 127 0"/><feOffset dy="1" dx="0"/><feGaussianBlur stdDeviation="2"/><feColorMatrix type="matrix" values="0 0 0 0 0 0 0 0 0 0 0 0 0 0 0 0 0 0 0.07999999821186066 0"/><feBlend mode="normal" in2="BackgroundImageFix" result="effect1_dropShadow"/><feBlend mode="normal" in="SourceGraphic" in2="effect1_dropShadow" result="shape"/></filter><clipPath id="master_svg1_69_02616"><rect x="9" y="8" width="14" height="14" rx="0"/></clipPath></defs><rect x="6" y="5" width="20" height="20" rx="2" fill="#0470FF" fill-opacity="1" filter="url(#master_svg0_36_38118)"/><g clip-path="url(#master_svg1_69_02616)"><path d="M17.1671524234375,12.083085024999999Q17.1671524234375,12.140419525,17.1615324234375,12.197477825Q17.1559124234375,12.254536125,17.144726523437498,12.310768825Q17.1335406234375,12.367001725,17.1168966234375,12.421867325000001Q17.1002526234375,12.476732925,17.0783109234375,12.529703025Q17.0563693234375,12.582673325,17.0293412234375,12.633237725Q17.0023131234375,12.683802125,16.9704585234375,12.731473925Q16.9386043234375,12.779145825,16.9022302234375,12.823465925Q16.8658564234375,12.867786025000001,16.8253133234375,12.908327625Q16.7847703234375,12.948869225,16.7404486234375,12.985241925Q16.6961269234375,13.021614325,16.6484532234375,13.053467525Q16.6007797234375,13.085320925,16.5502134234375,13.112348325Q16.4996471234375,13.139375725,16.4466749234375,13.161316424999999Q16.3937030234375,13.183257625,16.3388355234375,13.199900825Q16.2839677234375,13.216544125,16.2277329234375,13.227729525Q16.1714983234375,13.238914925,16.1144378234375,13.244534925Q16.0573776234375,13.250154525,16.0000410234375,13.250154525Q15.9427045234375,13.250154525,15.8856442234375,13.244534925Q15.8285837134375,13.238914925,15.7723488234375,13.227729525Q15.7161141034375,13.216544125,15.6612464834375,13.199900825Q15.6063789134375,13.183257625,15.5534067734375,13.161316424999999Q15.5004348134375,13.139375725,15.4498685634375,13.112348325Q15.3993022434375,13.085320925,15.3516286634375,13.053467725Q15.3039551334375,13.021614525,15.2596334234375,12.985241925Q15.2153117034375,12.948869225,15.1747686534375,12.908327625Q15.1342256634375,12.867786025000001,15.0978517534375,12.823465925Q15.0614778534375,12.779145825,15.0296233934375,12.731473925Q14.9977689434375,12.683802125,14.9707407034375,12.633237825Q14.9437124734375,12.582673325,14.9217707364375,12.529703025Q14.8998290154375,12.476732925,14.8831851074375,12.421867325000001Q14.8665411994375,12.367001725,14.8553554024375,12.310768825Q14.8441696074375,12.254536125,14.8385496470375,12.197477825Q14.8329296874575,12.140419525,14.8329296874875,12.083085024999999Q14.8329296874575,12.025750625,14.8385496470375,11.968692325Q14.8441696064375,11.911633905,14.8553554004375,11.855401035Q14.8665411994375,11.799168345,14.8831851034375,11.744302695Q14.8998290154375,11.689437035,14.9217707364375,11.636466865Q14.9437124734375,11.583496805,14.9707407034375,11.532932285Q14.9977689434375,11.482367875,15.0296233934375,11.434695955Q15.0614778534375,11.387024135,15.0978517534375,11.342704025Q15.1342256634375,11.298383895,15.1747686534375,11.257842335Q15.2153117034375,11.217300775,15.2596334234375,11.180928175Q15.3039551334375,11.144555595,15.3516286634375,11.112702285Q15.3993022434375,11.080848995,15.4498685034375,11.053821715Q15.5004348134375,11.026794445,15.5534067734375,11.004853487Q15.6063789134375,10.982912548,15.6612464834375,10.96626924Q15.7161141034375,10.949625928,15.7723488234375,10.938440533Q15.8285837134375,10.927255141,15.8856442234375,10.9216353828Q15.9427045234375,10.916015625,16.0000410234375,10.916015625Q16.0573776234375,10.916015625,16.1144379234375,10.9216353828Q16.1714983234375,10.927255141,16.2277330234375,10.938440533Q16.2839678234375,10.949625928,16.3388355234375,10.96626924Q16.3937031234375,10.982912548,16.4466750234375,11.004853487Q16.4996471234375,11.026794445,16.5502134234375,11.053821715Q16.6007797234375,11.080848995,16.6484532234375,11.112702285Q16.6961269234375,11.144555595,16.7404487234375,11.180928205Q16.7847703234375,11.217300775,16.8253133234375,11.257842335Q16.8658564234375,11.298383895,16.9022302234375,11.342704025Q16.9386043234375,11.387024135,16.9704585234375,11.434695955Q17.0023131234375,11.482367875,17.0293412234375,11.532932345Q17.0563695234375,11.583496805,17.0783112234375,11.636466865Q17.1002531234375,11.689437035,17.1168971234375,11.744302635Q17.1335411234375,11.799168345,17.1447267234375,11.855401035Q17.1559126234375,11.911633905,17.161532623437502,11.968692325Q17.1671524234375,12.025750625,17.1671524234375,12.083085024999999Z" fill="#FFFFFF" fill-opacity="1" style="mix-blend-mode:passthrough"/><path d="M17.7220411234375,8.0000001358481C18.0434351234375,7.99982148891,18.3390589234375,8.17585172,18.4920416234375,8.45850015L20.2292080234375,11.6668334C20.369855023437502,11.9266894,20.369855023437502,12.2399774,20.2292080234375,12.4998331L18.4914579234375,15.7081671C18.3385744234375,15.9906311,18.0432262234375,16.1666317,17.7220411234375,16.166667L16.5833745234375,16.166667L16.5833745234375,17.4068336C17.590208023437498,17.6664162,18.333375023437497,18.579333,18.333375023437497,19.666666L21.833375023437497,19.666666C22.1555410234375,19.666666,22.4167080234375,19.927833,22.4167080234375,20.249999000000003C22.4167080234375,20.572165,22.1555410234375,20.833333,21.833375023437497,20.833333L18.0207081234375,20.833917C17.6039362234375,21.555785999999998,16.8335838234375,22.00034,16.0000410234375,22C15.1664977234375,22.00034,14.3961448234375,21.555787000000002,13.9793744234375,20.833918L10.1667075134375,20.833333C9.8445412834375,20.833333,9.5833740234375,20.572165,9.5833740234375,20.249999000000003C9.5833740234375,19.927833,9.8445412834375,19.666666,10.1667075134375,19.666666L13.6667075234375,19.666666C13.666849123437501,18.602591,14.3865232234375,17.6732512,15.4167075234375,17.4068336L15.4167075234375,16.166667L14.278041323437499,16.166667C13.9878320234375,16.1667862,13.7164454234375,16.0230083,13.5535412234375,15.7828336L13.5086243234375,15.7081671L11.7702906234375,12.499834100000001C11.6296434234375,12.2399783,11.6296434234375,11.9266903,11.7702906234375,11.666834099999999L13.5086243234375,8.45850062C13.6615081234375,8.17603627,13.9568567234375,8.000036102498,14.278041323437499,8.0000001358481L17.7220411234375,8.0000001358481ZM16.0000410234375,18.5C15.3557086234375,18.5,14.8333740234375,19.022334,14.8333740234375,19.666666C14.8333740234375,20.310997999999998,15.3557086234375,20.833333,16.0000410234375,20.833333C16.6443729234375,20.833333,17.166707523437502,20.310997999999998,17.166707523437502,19.666666C17.166707523437502,19.022334,16.6443729234375,18.5,16.0000410234375,18.5ZM17.5487909234375,9.1666671L14.4518742234375,9.1666671L12.8722076234375,12.0833335L14.452457423437501,15L17.5482073234375,15L19.1284580234375,12.0833335L17.5487909234375,9.1666671Z" fill="#FFFFFF" fill-opacity="1" style="mix-blend-mode:passthrough"/></g></svg>