<svg xmlns="http://www.w3.org/2000/svg" xmlns:xlink="http://www.w3.org/1999/xlink" fill="none" version="1.1" width="24" height="20" viewBox="0 0 24 20"><defs><clipPath id="master_svg0_71_05275"><rect x="0" y="0" width="24" height="20" rx="0"/></clipPath></defs><g clip-path="url(#master_svg0_71_05275)"><path d="M3,3.00000016689299L22.5,3.00000016689299C23.328373,3.00000016689299,24,3.59028655,24,4.3179688L24,13.705761C24,15.161127,22.657005,16.341016,21.000002,16.341016L0,16.341016L0,5.6352537C0,4.1796542,1.3432572,3.00000016689299,3,3.00000016689299ZM0,16.341016L1.6363635,16.34082L1.6363635,17.5L0,16.341016Z" fill="#FFB806" fill-opacity="1" style="mix-blend-mode:passthrough"/><g><path d="M3.9499999,5.75L9.779999700000001,5.75L9.779999700000001,9.1100001L3.9499999,9.1100001L3.9499999,5.75ZM4.8599999,8.25L8.8699999,8.25L8.8699999,6.610000100000001L4.8599999,6.610000100000001L4.8599999,8.25ZM3.79,14.27L2.93000001,14.27L2.93000001,10.029999700000001L6.4699998,10.029999700000001L6.4699998,14.27L5.6099999,14.27L5.6099999,13.72L3.79,13.72L3.79,14.27ZM7.21,14.27L7.21,10.029999700000001L10.8000002,10.029999700000001L10.8000002,14.27L9.940000099999999,14.27L9.940000099999999,13.72L8.0699997,13.72L8.0699997,14.27L7.21,14.27ZM5.6099999,12.8900003L5.6099999,10.8600001L3.79,10.8600001L3.79,12.8900003L5.6099999,12.8900003ZM8.0699997,10.8699999L8.0699997,12.8900003L9.940000099999999,12.8900003L9.940000099999999,10.8699999L8.0699997,10.8699999ZM21.200001,12.0500002L21.200001,12.8299999L19.09,12.8299999L19.09,14.51L18.200001,14.51L18.200001,12.8299999L15.55,12.8299999L15.55,12.0500002L16.369999999999997,12.0500002L16.110001,11.6800003Q16.92,11.220000299999999,17.32,10.779999700000001L16.07,10.779999700000001L16.07,6.3900003000000005L17.55,6.3900003000000005Q17.809998999999998,5.8000001999999995,17.940001000000002,5.3299999L18.809999,5.5599999Q18.690001,5.9300003,18.49,6.3900003000000005L20.610001,6.3900003000000005L20.610001,10.779999700000001L18.23,10.779999700000001Q17.83,11.48,17,12.0500002L18.200001,12.0500002L18.200001,11.0100002L19.09,11.0500002L19.09,12.0500002L21.200001,12.0500002ZM13.74,10.0799999L13.74,10.3299999L15.32,10.3299999L15.32,14.47L14.530001,14.47L14.530001,11.1999998L13.71,11.1999998Q13.64,12.1800003,13.445,12.9799995Q13.25,13.78,12.89,14.6L12.08,14.23Q12.42,13.4700003,12.595,12.8999996Q12.77,12.3299999,12.85,11.625Q12.93,10.9200001,12.93,9.8600001L12.93,5.8900003000000005L13.74,5.9300003L13.74,8.4000001L14.48,8.4000001L14.48,5.71L15.26,5.75L15.26,8.4000001L15.79,8.4000001L15.79,9.27L13.74,9.27L13.74,10.0799999ZM17.96,8.21L17.96,7.1700001L16.860001,7.1700001L16.860001,8.21L17.96,8.21ZM18.73,8.21L19.809999,8.21L19.809999,7.1700001L18.73,7.1700001L18.73,8.21ZM16.860001,9.9899998L17.77,9.9899998Q17.92,9.5500002,17.95,8.9900002L16.860001,8.9900002L16.860001,9.9899998ZM19.809999,9.9899998L19.809999,8.9900002L18.719999,8.9900002Q18.690001,9.5500002,18.559999,9.9899998L19.809999,9.9899998Z" fill="#FFFFFF" fill-opacity="1"/></g></g></svg>