<svg xmlns="http://www.w3.org/2000/svg" xmlns:xlink="http://www.w3.org/1999/xlink" fill="none" version="1.1" width="24" height="20" viewBox="0 0 24 20"><defs><clipPath id="master_svg0_71_05511"><rect x="0" y="0" width="24" height="20" rx="0"/></clipPath></defs><g clip-path="url(#master_svg0_71_05511)"><path d="M3,3.00000016689299L22.5,3.00000016689299C23.328373,3.00000016689299,24,3.59028655,24,4.3179688L24,13.705761C24,15.161127,22.657005,16.341016,21.000002,16.341016L0,16.341016L0,5.6352537C0,4.1796542,1.3432572,3.00000016689299,3,3.00000016689299ZM0,16.341016L1.6363635,16.34082L1.6363635,17.5L0,16.341016Z" fill="#0064FF" fill-opacity="1" style="mix-blend-mode:passthrough"/><g><path d="M9.5,11.1800003L7.4099998,11.2399998L7.4099998,13.2700005Q7.4099998,13.7,7.3099999,13.91Q7.21,14.12,6.9449997,14.21Q6.6799998,14.3,6.0899997,14.35L5.52,14.4L5.27,13.66L5.970000000000001,13.6Q6.29,13.57,6.4299998,13.525Q6.5699997,13.4799995,6.6149998,13.3800001Q6.6599998,13.2799997,6.6599998,13.0600004L6.6599998,11.27Q4.96,11.3299999,4.2,11.3800001Q3.87,11.3900003,3.2800000000000002,11.46L3.13,10.6999998Q3.5999999000000003,10.6400003,3.87,10.5500002Q5.1499999,10.100000399999999,6.6599998,9.0999999Q4.8799999,9.1399999,4.1499999,9.1800003Q3.9299999000000003,9.1800003,3.4299999000000003,9.23L3.29,8.570000199999999Q3.6100000000000003,8.5300002,3.77,8.4850001Q3.9299999000000003,8.440000099999999,4.0599999,8.3699999Q4.5,8.1199999,5.014999899999999,7.7350001Q5.529999999999999,7.3499999,6.0099998,6.9200001L5.3999999,6.9500003Q3.5899999,7.0599999,3.1399999999999997,7.0700002L3.01,6.3400002Q4.6299999,6.3000001999999995,6.9400001,6.1500001Q9.25,6,10.5900002,5.830000399999999L10.71,6.5599999Q9.2599998,6.71,6.54,6.8900003000000005L6.75,7.1400003000000005Q5.8199999,8.02,5.029999999999999,8.5100002Q5.46,8.5100002,7.5899997,8.4200001Q8.3299999,7.8600001,9.1399999,7.0900002L9.6199999,7.6500001Q8.7199998,8.4900002,7.6099997,9.2750001Q6.5,10.0600004,5.48,10.600000399999999Q6.54,10.570000199999999,8.529999700000001,10.48L9.3499999,10.4499998Q8.8499999,9.9200001,8.4499998,9.570000199999999L8.9899998,9.1100001Q9.4199996,9.470000299999999,10.0649996,10.165Q10.71,10.8600001,11.0299997,11.3000002L10.5100002,11.8599997Q10.3099995,11.5500002,9.9899998,11.1700001L9.5,11.1800003ZM5.5899999000000005,12.2700005Q5.05,12.7299995,4.2749999,13.2399998Q3.5,13.75,2.74000001,14.18L2.37,13.55Q3.09,13.1700001,3.875,12.6549997Q4.6599998,12.1400003,5.1499999,11.6800003L5.5899999000000005,12.2700005ZM8.52,11.71Q9.1199999,12.0200005,9.9949999,12.54Q10.8699999,13.0600004,11.4099998,13.46L11.0599995,14.16Q10.5999994,13.77,9.6699996,13.1850004Q8.7399998,12.6000004,8.1500001,12.3100004L8.52,11.71ZM19.860001,5.5700002L20.630001,5.6000004L20.630001,13.1400003Q20.630001,13.56,20.494999,13.805Q20.360001,14.05,20.029999,14.18Q19.700001,14.31,19.08,14.35L18.469999,14.39L18.219999,13.62L18.969999,13.58Q19.35,13.56,19.540001,13.4899998Q19.73,13.4200001,19.795,13.2749996Q19.860001,13.1300001,19.860001,12.8500004L19.860001,5.5700002ZM12.66,6.7600002L12.66,6.04L17.45,6.04L17.45,6.7600002L15.1,6.7600002Q14.91,7.470000300000001,14.63,8.1800003L16.97,8.1800003L16.97,8.8600001Q16.68,10.1599998,16.195,11.1500001Q15.71,12.1400003,14.935,12.9799995Q14.16,13.82,12.98,14.66L12.49,14.04Q13.64,13.25,14.35,12.5150003Q15.06,11.7799997,15.49,10.9200001Q15.92,10.0600004,16.21,8.8800001L14.34,8.8800001Q14.09,9.4200001,13.9,9.7600002Q14.17,9.9499998,14.55,10.279999700000001Q14.93,10.6100001,15.15,10.8400002L14.72,11.5200005Q14.54,11.279999700000001,14.2,10.96Q13.860001,10.6400003,13.53,10.3800001Q13.08,11.0799999,12.650001,11.5900002L12.14,11.0799999Q12.87,10.2399998,13.47,9.0500002Q14.07,7.8600001,14.33,6.7600002L12.66,6.7600002ZM17.93,6.48L18.67,6.5100002L18.67,12.25L17.93,12.25L17.93,6.48Z" fill="#FFFFFF" fill-opacity="1"/></g></g></svg>