<svg xmlns="http://www.w3.org/2000/svg" xmlns:xlink="http://www.w3.org/1999/xlink" fill="none" version="1.1" width="16" height="16.000001907348633" viewBox="0 0 16 16.000001907348633"><defs><clipPath id="master_svg0_36_29888"><rect x="0" y="0" width="16" height="16.000001907348633" rx="0"/></clipPath></defs><g clip-path="url(#master_svg0_36_29888)"><path d="M2,3.00000011920929L15,3.00000011920929C15.552247,3.00000011920929,16,3.4216332400000002,16,3.94140637L16,10.6469727C16,11.6865196,15.104671,12.5292969,14,12.5292969L0,12.5292969L0,4.8823243000000005C0,3.84261006,0.89550471,3.00000011920929,2,3.00000011920929ZM0,12.5292969L0.5,12.5292969L0.5,13L0,12.5292969Z" fill="#FF5C26" fill-opacity="1" style="mix-blend-mode:passthrough"/><g><path d="M3.23,5.4159999L6.5900002,5.4159999L6.5900002,7.348L3.23,7.348L3.23,5.4159999ZM3.6620001,6.928L6.152,6.928L6.152,5.8239999000000005L3.6620001,5.8239999000000005L3.6620001,6.928ZM3.02,10.4559999L2.588,10.4559999L2.588,7.96L4.652,7.96L4.652,10.4559999L4.220000000000001,10.4559999L4.220000000000001,10.1199999L3.02,10.1199999L3.02,10.4559999ZM5.1919999,10.4559999L5.1919999,7.96L7.2740002,7.96L7.2740002,10.4559999L6.836,10.4559999L6.836,10.1199999L5.6240001,10.1199999L5.6240001,10.4559999L5.1919999,10.4559999ZM4.220000000000001,9.7119999L4.220000000000001,8.368L3.02,8.368L3.02,9.7119999L4.220000000000001,9.7119999ZM5.6240001,8.368L5.6240001,9.7119999L6.836,9.7119999L6.836,8.368L5.6240001,8.368ZM8.252000299999999,7.954000000000001Q9.5600004,7.5880001,10.4300003,6.898L8.438000200000001,6.898L8.438000200000001,6.52L9.7700005,6.52Q9.6140003,6.316,9.3320003,6.0550001Q9.0500002,5.7940001,8.8340001,5.638L9.1040001,5.3379998Q9.2960005,5.4639997000000005,9.599000499999999,5.7339997Q9.9020004,6.0039999,10.0760002,6.201999900000001L9.8300004,6.52L10.6160002,6.52L10.6160002,5.2119999L11.0540009,5.23L11.0540009,6.52L13.244,6.52L13.244,6.898L11.0540009,6.898L11.0540009,7.9359999000000006L10.6160002,7.9359999000000006L10.6160002,7.27Q10.2080002,7.6059999000000005,9.71,7.8610001Q9.2120004,8.1160002,8.4440002,8.3860002L8.252000299999999,7.954000000000001ZM12.854,5.6019998Q12.68,5.8000001999999995,12.374001,6.079000000000001Q12.068001,6.3580000000000005,11.8760004,6.4960001L11.6000004,6.1959999Q11.7860003,6.0699999,12.08,5.7909999Q12.374001,5.5120001,12.554001,5.3080001L12.854,5.6019998ZM11.2639999,7.0539999Q11.6540003,7.168,12.299,7.4259999Q12.944,7.684,13.328001,7.882L13.202,8.308000100000001Q12.836,8.097999999999999,12.182,7.819Q11.5279999,7.54,11.1140003,7.414L11.2639999,7.0539999ZM11.1079998,8.937999699999999Q11.3780003,9.352000199999999,11.9870005,9.682000200000001Q12.596001,10.0120001,13.508,10.1739998L13.358,10.6360002Q11.4800005,10.1739998,10.868,9.3280001Q10.6100006,9.7540002,10.0010004,10.057000200000001Q9.3920002,10.3600001,8.3240004,10.6300001L8.1380005,10.1739998Q9.1640005,9.964000200000001,9.7550001,9.658000000000001Q10.3460007,9.352000199999999,10.526,8.937999699999999L8.4500003,8.937999699999999L8.4500003,8.5479999L10.6100006,8.5479999L10.6100006,8.5419998L10.6100006,8.097999999999999L11.066,8.1160002L11.066,8.5419998L11.066,8.5479999L13.238001,8.5479999L13.238001,8.937999699999999L11.1079998,8.937999699999999Z" fill="#FFFFFF" fill-opacity="1"/></g></g></svg>