<svg xmlns="http://www.w3.org/2000/svg" xmlns:xlink="http://www.w3.org/1999/xlink" fill="none" version="1.1" width="16" height="16" viewBox="0 0 16 16"><defs><clipPath id="master_svg0_62_08503"><rect x="0" y="0" width="16" height="16" rx="0"/></clipPath></defs><g clip-path="url(#master_svg0_62_08503)"><path d="M14.4062255859375,14.2263671875L1.5937255659375,14.2263671875C1.2515380659375,14.2263671875,0.9749755859375,13.9498041875,0.9749755859375,13.6076171875L0.9749755859375,3.5044921675C0.9749755859375,3.1623046675,1.2515380659375,2.8857421875,1.5937255659375,2.8857421875L14.4062255859375,2.8857421875C14.7484135859375,2.8857421875,15.0249745859375,3.1623046675,15.0249745859375,3.5044921675L15.0249745859375,13.6076171875C15.0249745859375,13.9482421875,14.7468495859375,14.2263671875,14.4062255859375,14.2263671875Z" fill="#FFA000" fill-opacity="1" style="mix-blend-mode:passthrough"/><path d="M7.9999751859375,5.5453124L0.9749755859375,5.5453124L0.9749755859375,2.39218748C0.9749755859375,2.04999998,1.2515380659375,1.7734375,1.5937255659375,1.7734375L6.4015378859375,1.7734375C6.6749753859375,1.7734375,6.9156002859375,1.95156249,6.9937252859375,2.21406248L7.9999751859375,5.5453124Z" fill="#FFA000" fill-opacity="1" style="mix-blend-mode:passthrough"/><path d="M13.43280029296875,13.45771504375L2.56717527296875,13.45771504375C2.22498777296875,13.45771504375,1.94842529296875,13.18115234375,1.94842529296875,12.83896444375L1.94842529296875,4.4483398237500005C1.94842529296875,4.10615232375,2.22498777296875,3.82958984375,2.56717527296875,3.82958984375L13.43436229296875,3.82958984375C13.77655029296875,3.82958984375,14.05311329296875,4.10615232375,14.05311329296875,4.4483398237500005L14.05311329296875,12.83896444375C14.05311329296875,13.17958924375,13.77498729296875,13.45771504375,13.43280029296875,13.45771504375Z" fill="#FFFFFF" fill-opacity="1" style="mix-blend-mode:passthrough"/><path d="M14.4062255859375,14.2265625L1.5937255659375,14.2265625C1.2515380659375,14.2265625,0.9749755859375,13.9499998,0.9749755859375,13.6078119L0.9749755859375,5.6109374800000005C0.9749755859375,5.26874998,1.2515380659375,4.9921875,1.5937255659375,4.9921875L14.4062255859375,4.9921875C14.7484135859375,4.9921875,15.0249745859375,5.26874998,15.0249745859375,5.6109374800000005L15.0249745859375,13.6078119C15.0249745859375,13.9484377,14.7468495859375,14.2265625,14.4062255859375,14.2265625Z" fill="#FFCA28" fill-opacity="1" style="mix-blend-mode:passthrough"/><path d="M13.325,4.9921875L9.5687499,11.5437498L6.2906249,7.184375L2.296875,7.3640625L3.8203125,9.3968749L2.296875,9.4656248L5.8625,14.2249994L14.40625,14.2249994C14.748437,14.2249994,15.025,13.9484377,15.025,13.6062498L15.025,7.2390625L13.325,4.9921875Z" fill="#FFB806" fill-opacity="1" style="mix-blend-mode:passthrough"/><path d="M5.98126220703125,7.5484374800000005L2.5796996970312502,7.5484374800000005C2.40938719703125,7.5484374800000005,2.27032470703125,7.40937498,2.27032470703125,7.23906249C2.27032470703125,7.06874999,2.40938719703125,6.9296875,2.5796996970312502,6.9296875L5.98126220703125,6.9296875C6.15157460703125,6.9296875,6.29063700703125,7.06874999,6.29063700703125,7.23906249C6.29063700703125,7.40937498,6.15157460703125,7.5484374800000005,5.98126220703125,7.5484374800000005ZM5.98126220703125,9.649999900000001L2.5796996970312502,9.649999900000001C2.40938719703125,9.649999900000001,2.27032470703125,9.5109375,2.27032470703125,9.340625C2.27032470703125,9.1703124,2.40938719703125,9.03125,2.5796996970312502,9.03125L5.98126220703125,9.03125C6.15157460703125,9.03125,6.29063700703125,9.1703124,6.29063700703125,9.340625C6.29063700703125,9.5125,6.15157460703125,9.649999900000001,5.98126220703125,9.649999900000001Z" fill="#FFF8E1" fill-opacity="1" style="mix-blend-mode:passthrough"/><path d="M13.0843992140625,11.920507412500001L11.4125244140625,10.8158202125C11.3609619140625,10.7814450125,11.2937744140625,10.7814450125,11.2422118140625,10.8158202125L9.5703369040625,11.920507412500001C9.4672119140625,11.9892578125,9.3297119140625,11.9142575125,9.3297119140625,11.7908201125L9.3297119140625,4.9705078025C9.3297119140625,4.8001953025,9.4625244140625,4.6611328125,9.6250244040625,4.6611328125L13.0281494140625,4.6611328125C13.190649314062501,4.6611328125,13.323461814062501,4.8001953025,13.323461814062501,4.9705078025L13.323461814062501,11.7908201125C13.3250244140625,11.9142575125,13.1875243140625,11.9892578125,13.0843992140625,11.920507412500001Z" fill="#F44336" fill-opacity="1" style="mix-blend-mode:passthrough"/></g></svg>