<svg xmlns="http://www.w3.org/2000/svg" xmlns:xlink="http://www.w3.org/1999/xlink" fill="none" version="1.1" width="16" height="16.000001907348633" viewBox="0 0 16 16.000001907348633"><defs><clipPath id="master_svg0_36_29965"><rect x="0" y="0" width="16" height="16.000001907348633" rx="0"/></clipPath></defs><g clip-path="url(#master_svg0_36_29965)"><path d="M2,3.00000011920929L15,3.00000011920929C15.552247,3.00000011920929,16,3.4216332400000002,16,3.94140637L16,10.6469727C16,11.6865196,15.104671,12.5292969,14,12.5292969L0,12.5292969L0,4.8823243000000005C0,3.84261006,0.89550471,3.00000011920929,2,3.00000011920929ZM0,12.5292969L0.5,12.5292969L0.5,13L0,12.5292969Z" fill="#0064FF" fill-opacity="1" style="mix-blend-mode:passthrough"/><g><path d="M6.5,8.6079998L5.2460001,8.6440001L5.2460001,9.862Q5.2460001,10.1199999,5.186000099999999,10.2459998Q5.1259999,10.372000199999999,4.9670000000000005,10.4260001Q4.8080001,10.48,4.454000000000001,10.5100002L4.112,10.54L3.9619999999999997,10.096000199999999L4.382,10.059999900000001Q4.5740001,10.0419998,4.6579999999999995,10.0149999Q4.7420001,9.9879999,4.7690000999999995,9.928Q4.795999999999999,9.868,4.795999999999999,9.7360001L4.795999999999999,8.661999699999999Q3.776,8.698,3.3200000999999997,8.7280002Q3.122,8.7340002,2.7680000099999997,8.776L2.6780000299999998,8.3199997Q2.96000004,8.283999900000001,3.122,8.23Q3.8899999999999997,7.96,4.795999999999999,7.3599999Q3.7279999999999998,7.3840001,3.29,7.4079999999999995Q3.158,7.4079999999999995,2.8579999799999998,7.438000000000001L2.77399999,7.0420001Q2.96600002,7.0179998999999995,3.0620000000000003,6.9909999Q3.158,6.964,3.2360001,6.921999899999999Q3.5,6.7720001,3.809,6.5409999Q4.118,6.3099999,4.4060001,6.052L4.04,6.0699999Q2.9539999999999997,6.1359999,2.68400002,6.1419999999999995L2.60600001,5.704Q3.5780000999999997,5.6799998,4.964,5.5900002Q6.3499999,5.5,7.1540003,5.3979998L7.2259998,5.836Q6.3559999,5.9260000999999995,4.724,6.0339998999999995L4.8500001,6.184Q4.2920001,6.7119999,3.818,7.006Q4.0760000000000005,7.006,5.3540001,6.951999900000001Q5.798000099999999,6.6159999,6.2839999,6.154L6.572,6.49Q6.0320001,6.994,5.3659999,7.4649999000000005Q4.7,7.9359999000000006,4.0880001,8.2600002Q4.724,8.2420001,5.918,8.187999699999999L6.4099998,8.1700001Q6.1100001,7.852,5.8700001,7.6419999999999995L6.1940002,7.3659999Q6.4520001,7.582,6.8390002,7.9990001Q7.2259998,8.4159999,7.4180002,8.679999800000001L7.1059999,9.0159998Q6.9860001,8.8299999,6.7940001,8.602000199999999L6.5,8.6079998ZM4.154,9.2620001Q3.83,9.5380001,3.365,9.8439999Q2.90000004,10.1500001,2.44400001,10.408000000000001L2.222,10.0300002Q2.65399998,9.802,3.125,9.493Q3.596,9.184000000000001,3.8899999999999997,8.908000000000001L4.154,9.2620001ZM5.9119999,8.9260001Q6.2719998,9.112,6.7969999,9.4239998Q7.322,9.7360001,7.6459999,9.9759998L7.4359999,10.3959999Q7.1599998,10.1620002,6.6020002,9.810999899999999Q6.0440001,9.46,5.6900001,9.286000300000001L5.9119999,8.9260001ZM12.716001,5.2420001L13.178,5.2599998L13.178,9.783999900000001Q13.178,10.035999799999999,13.097,10.183000100000001Q13.016001,10.3299999,12.818001,10.408000000000001Q12.620001,10.4860001,12.248,10.5100002L11.882,10.533999900000001L11.7320004,10.072L12.182,10.0479999Q12.41,10.035999799999999,12.524,9.994Q12.638,9.9520001,12.677,9.8649998Q12.716001,9.777999900000001,12.716001,9.6100001L12.716001,5.2420001ZM8.3960004,5.9559999L8.3960004,5.5240002L11.2700005,5.5240002L11.2700005,5.9559999L9.8600001,5.9559999Q9.7460003,6.382,9.5780001,6.8080001L10.9820004,6.8080001L10.9820004,7.2160001000000005Q10.8080006,7.9960001,10.5170002,8.5900002Q10.2259998,9.184000000000001,9.7610002,9.688000200000001Q9.2960005,10.191999899999999,8.588000300000001,10.6960001L8.2940001,10.3239999Q8.9840002,9.8499999,9.4100003,9.408999900000001Q9.8360004,8.967999899999999,10.0939999,8.4520001Q10.3520002,7.9359999000000006,10.526,7.2279999L9.4040003,7.2279999Q9.2540002,7.552,9.1400003,7.756Q9.302,7.8699999,9.5300002,8.067999799999999Q9.7580004,8.2659998,9.8900003,8.4040003L9.632000399999999,8.812000300000001Q9.5240002,8.6680002,9.320000199999999,8.4759998Q9.1160002,8.283999900000001,8.9180002,8.1280003Q8.6480002,8.5479999,8.3900003,8.8540001L8.0840001,8.5479999Q8.5220003,8.0440001,8.882000399999999,7.3299999Q9.2420006,6.6159999,9.3980002,5.9559999L8.3960004,5.9559999ZM11.5580006,5.7880001L12.002001,5.8059998L12.002001,9.25L11.5580006,9.25L11.5580006,5.7880001Z" fill="#FFFFFF" fill-opacity="1"/></g></g></svg>