<svg xmlns="http://www.w3.org/2000/svg" xmlns:xlink="http://www.w3.org/1999/xlink" fill="none" version="1.1" width="16" height="16" viewBox="0 0 16 16"><defs><clipPath id="master_svg0_62_08476"><rect x="0" y="0" width="16" height="16" rx="0"/></clipPath></defs><g clip-path="url(#master_svg0_62_08476)"><path d="M14,5.5043025L14,13.360644C14,14.263251,13.299205,15.000001,12.443478,15.000001L3.5565232,15.000001C2.70079565,15.000001,2,14.261505,2,13.358898L2,2.6411026C2,1.73849612,2.70079565,1,3.5565232,1L9.6438975,1" fill="#F33B3D" fill-opacity="1" style="mix-blend-mode:passthrough"/><path d="M9.64384126663208,1L13.99814276663208,5.5025568L11.30485316663208,5.5025568C10.41849976663208,5.5025568,9.69608567263208,4.8111985,9.68347495763208,3.9522386L9.64384126663208,1Z" fill="#FFC9C9" fill-opacity="1" style="opacity:0.699999988079071;"/><path d="M10.297825356872558,8.335859082611083L5.700317386872559,8.335859082611083C5.303980496872558,8.335859082611083,4.979704856872559,8.021605382611083,4.979704856872559,7.637517572611084C4.979704856872559,7.253429772611084,5.303980496872558,6.939176082611084,5.700317386872559,6.939176082611084L10.297825356872558,6.939176082611084C10.694161856872558,6.939176082611084,11.01843785687256,7.253429772611084,11.01843785687256,7.637517572611084C11.01843785687256,8.021605382611083,10.694161856872558,8.335859082611083,10.297825356872558,8.335859082611083ZM10.297825356872558,11.845025082611084L5.700317386872559,11.845025082611084C5.303980496872558,11.845025082611084,4.979704856872559,11.530771282611084,4.979704856872559,11.146683682611084C4.979704856872559,10.762595882611084,5.303980496872558,10.448342082611084,5.700317386872559,10.448342082611084L10.297825356872558,10.448342082611084C10.694161856872558,10.448342082611084,11.01843785687256,10.762595882611084,11.01843785687256,11.146683682611084C11.01843785687256,11.530771282611084,10.694161856872558,11.845025082611084,10.297825356872558,11.845025082611084Z" fill="#FFFFFF" fill-opacity="1" style="mix-blend-mode:passthrough"/></g></svg>