<svg xmlns="http://www.w3.org/2000/svg" xmlns:xlink="http://www.w3.org/1999/xlink" fill="none" version="1.1" width="16" height="16" viewBox="0 0 16 16"><defs><clipPath id="master_svg0_62_08498"><rect x="0" y="0" width="16" height="16" rx="0"/></clipPath></defs><g clip-path="url(#master_svg0_62_08498)"><path d="M12.01875,14.29072265625L2.9640625,14.29072265625C1.87968749,14.29072265625,1,13.41103465625,1,12.32666065625L1,3.67353515625C1,2.5891601462500002,1.87968749,1.70947265625,2.9640625,1.70947265625L5.5703125,1.70947265625C6.0343747,1.70947265625,6.4625001,1.95322264625,6.6999998,2.35166013625L6.8140626,2.54384761625C7.0140624,2.87822255625,7.375,3.08291015625,7.7640624,3.08291015625L12.01875,3.08291015625C13.103125,3.08291015625,13.982812,3.96259765625,13.982812,5.04697255625L13.982812,12.32822265625C13.982812,13.41103465625,13.103125,14.29072265625,12.01875,14.29072265625Z" fill="#306EFD" fill-opacity="1" style="mix-blend-mode:passthrough"/><path d="M13.048427953125,14.29052734375L2.045302693125,14.29052734375C1.448427733125,14.29052734375,1.001552738125,13.60146424375,1.117177734125,12.86083984375L2.121865153125,6.44990229375C2.209365253125,5.89052733375,2.598427653125,5.48583984375,3.049990153125,5.48583984375L14.053114953125,5.48583984375C14.649989953125,5.48583984375,15.096864953125,6.1749023237500005,14.981239953125,6.91552734375L13.976551953125,13.32646464375C13.889051953125,13.88740254375,13.499989953125,14.29052734375,13.048427953125,14.29052734375Z" fill="#74B3FF" fill-opacity="1" style="mix-blend-mode:passthrough"/><path d="M5.343701171875,12.32177734375L3.0874511618750002,12.32177734375C2.903076171875,12.32177734375,2.754638671875,12.17333984375,2.754638671875,11.98896485375L2.754638671875,11.59208983375C2.754638671875,11.40771484375,2.903076171875,11.25927734375,3.0874511618750002,11.25927734375L5.343701171875,11.25927734375C5.528076171875,11.25927734375,5.676513671875,11.40771484375,5.676513671875,11.59208983375L5.676513671875,11.98896485375C5.676513671875,12.17333984375,5.528076171875,12.32177734375,5.343701171875,12.32177734375Z" fill="#FFFFFF" fill-opacity="1" style="mix-blend-mode:passthrough"/></g></svg>