<svg xmlns="http://www.w3.org/2000/svg" xmlns:xlink="http://www.w3.org/1999/xlink" fill="none" version="1.1" width="16" height="16.000001907348633" viewBox="0 0 16 16.000001907348633"><defs><clipPath id="master_svg0_36_29989"><rect x="0" y="0" width="16" height="16.000001907348633" rx="0"/></clipPath></defs><g clip-path="url(#master_svg0_36_29989)"><path d="M2,3.00000011920929L15,3.00000011920929C15.552247,3.00000011920929,16,3.4216332400000002,16,3.94140637L16,10.6469727C16,11.6865196,15.104671,12.5292969,14,12.5292969L0,12.5292969L0,4.8823243000000005C0,3.84261006,0.89550471,3.00000011920929,2,3.00000011920929ZM0,12.5292969L0.5,12.5292969L0.5,13L0,12.5292969Z" fill="#FFB200" fill-opacity="1" style="mix-blend-mode:passthrough"/><g><path d="M7.5679998,6.322L6.4460001,6.322Q6.296,6.813999900000001,6.0619998,7.389999899999999L7.3699999,7.389999899999999L7.3699999,7.828000100000001L3.3560001,7.828000100000001L3.3560001,8.3379998Q3.3560001,9.0999999,3.1879999999999997,9.627999800000001Q3.02,10.1560001,2.60600001,10.678L2.18000001,10.432000200000001Q2.60000002,9.9460001,2.75599998,9.472000099999999Q2.912,8.998000099999999,2.912,8.248000099999999L2.912,7.389999899999999L3.9680001000000003,7.389999899999999Q3.776,6.7060001,3.626,6.322L2.46200001,6.322L2.46200001,5.8839998L4.832,5.8839998Q4.7060001,5.4520001,4.6159999,5.224L5.0599999,5.1399999Q5.1440000999999995,5.3439999,5.3180001,5.8839998L7.5679998,5.8839998L7.5679998,6.322ZM5.5760000000000005,7.389999899999999Q5.779999999999999,6.9459999,5.9660001000000005,6.322L4.112,6.322Q4.3039999,6.8919999999999995,4.448,7.389999899999999L5.5760000000000005,7.389999899999999ZM9.1340003,5.4159999L12.494,5.4159999L12.494,7.348L9.1340003,7.348L9.1340003,5.4159999ZM9.566000500000001,6.928L12.056,6.928L12.056,5.8239999000000005L9.566000500000001,5.8239999000000005L9.566000500000001,6.928ZM8.9240003,10.4559999L8.4920001,10.4559999L8.4920001,7.96L10.5559998,7.96L10.5559998,10.4559999L10.1240005,10.4559999L10.1240005,10.1199999L8.9240003,10.1199999L8.9240003,10.4559999ZM11.0960007,10.4559999L11.0960007,7.96L13.178,7.96L13.178,10.4559999L12.74,10.4559999L12.74,10.1199999L11.5279999,10.1199999L11.5279999,10.4559999L11.0960007,10.4559999ZM10.1240005,9.7119999L10.1240005,8.368L8.9240003,8.368L8.9240003,9.7119999L10.1240005,9.7119999ZM11.5279999,8.368L11.5279999,9.7119999L12.74,9.7119999L12.74,8.368L11.5279999,8.368Z" fill="#FFFFFF" fill-opacity="1"/></g></g></svg>