<svg xmlns="http://www.w3.org/2000/svg" xmlns:xlink="http://www.w3.org/1999/xlink" fill="none" version="1.1" width="24" height="20" viewBox="0 0 24 20"><defs><clipPath id="master_svg0_71_05649"><rect x="0" y="0" width="24" height="20" rx="0"/></clipPath></defs><g clip-path="url(#master_svg0_71_05649)"><path d="M3,3.00000016689299L22.5,3.00000016689299C23.328373,3.00000016689299,24,3.59028655,24,4.3179688L24,13.705761C24,15.161127,22.657005,16.341016,21.000002,16.341016L0,16.341016L0,5.6352537C0,4.1796542,1.3432572,3.00000016689299,3,3.00000016689299ZM0,16.341016L1.6363635,16.34082L1.6363635,17.5L0,16.341016Z" fill="#FF5C26" fill-opacity="1" style="mix-blend-mode:passthrough"/><g><path d="M4.05,5.860000100000001L9.649999600000001,5.860000100000001L9.649999600000001,9.0799999L4.05,9.0799999L4.05,5.860000100000001ZM4.77,8.3800001L8.9200001,8.3800001L8.9200001,6.54L4.77,6.54L4.77,8.3800001ZM3.6999999,14.26L2.97999996,14.26L2.97999996,10.100000399999999L6.4200001,10.100000399999999L6.4200001,14.26L5.6999998000000005,14.26L5.6999998000000005,13.7L3.6999999,13.7L3.6999999,14.26ZM7.3199997,14.26L7.3199997,10.100000399999999L10.79,10.100000399999999L10.79,14.26L10.0599995,14.26L10.0599995,13.7L8.04,13.7L8.04,14.26L7.3199997,14.26ZM5.6999998000000005,13.0200005L5.6999998000000005,10.779999700000001L3.6999999,10.779999700000001L3.6999999,13.0200005L5.6999998000000005,13.0200005ZM8.04,10.779999700000001L8.04,13.0200005L10.0599995,13.0200005L10.0599995,10.779999700000001L8.04,10.779999700000001ZM12.42,10.0900002Q14.6,9.48,16.05,8.3299999L12.73,8.3299999L12.73,7.7000003L14.95,7.7000003Q14.690001,7.360000100000001,14.22,6.9250001999999995Q13.75,6.4900002,13.39,6.23L13.84,5.73Q14.16,5.9400001,14.665,6.3900003000000005Q15.17,6.8400002,15.46,7.1700001L15.05,7.7000003L16.360001,7.7000003L16.360001,5.52L17.09,5.5500001999999995L17.09,7.7000003L20.74,7.7000003L20.74,8.3299999L17.09,8.3299999L17.09,10.0600004L16.360001,10.0600004L16.360001,8.9500003Q15.68,9.5100002,14.85,9.9350004Q14.02,10.3600001,12.74,10.809999900000001L12.42,10.0900002ZM20.09,6.1700001Q19.799999,6.5,19.290001,6.9650002Q18.780001,7.4300003,18.459999,7.6600003L18,7.1600003Q18.309999,6.9500003,18.799999,6.485000100000001Q19.290001,6.02,19.59,5.6800003L20.09,6.1700001ZM17.440001000000002,8.5900002Q18.09,8.7800002,19.165001,9.21Q20.24,9.6400003,20.880001,9.970000299999999L20.67,10.6800003Q20.060001,10.3299999,18.969999,9.8649998Q17.880000000000003,9.4000001,17.190001000000002,9.190000099999999L17.440001000000002,8.5900002ZM17.18,11.7299995Q17.630000000000003,12.4200001,18.645,12.9700003Q19.66,13.52,21.18,13.79L20.93,14.559999Q17.8,13.79,16.780001,12.3800001Q16.35,13.0900002,15.335,13.595Q14.32,14.1,12.54,14.55L12.23,13.79Q13.940001,13.4399996,14.925,12.9300003Q15.91,12.4200001,16.21,11.7299995L12.75,11.7299995L12.75,11.0799999L16.35,11.0799999L16.35,11.070000199999999L16.35,10.3299999L17.110001,10.3600001L17.110001,11.070000199999999L17.110001,11.0799999L20.73,11.0799999L20.73,11.7299995L17.18,11.7299995Z" fill="#FFFFFF" fill-opacity="1"/></g></g></svg>