<svg xmlns="http://www.w3.org/2000/svg" xmlns:xlink="http://www.w3.org/1999/xlink" fill="none" version="1.1" width="24" height="20" viewBox="0 0 24 20"><defs><clipPath id="master_svg0_71_05539"><rect x="0" y="0" width="24" height="20" rx="0"/></clipPath></defs><g clip-path="url(#master_svg0_71_05539)"><path d="M3,3.00000016689299L22.5,3.00000016689299C23.328373,3.00000016689299,24,3.59028655,24,4.3179688L24,13.705761C24,15.161127,22.657005,16.341016,21.000002,16.341016L0,16.341016L0,5.6352537C0,4.1796542,1.3432572,3.00000016689299,3,3.00000016689299ZM0,16.341016L1.6363635,16.34082L1.6363635,17.5L0,16.341016Z" fill="#FFB806" fill-opacity="1" style="mix-blend-mode:passthrough"/><g><path d="M11.2799997,7.3700004L9.4099998,7.3700004Q9.1599998,8.190000099999999,8.77,9.1500001L10.9499998,9.1500001L10.9499998,9.8800001L4.26,9.8800001L4.26,10.73Q4.26,12,3.9799999,12.8800001Q3.6999999,13.76,3.01,14.63L2.29999998,14.22Q3,13.4099998,3.26,12.6199999Q3.52,11.8299999,3.52,10.5799999L3.52,9.1500001L5.279999999999999,9.1500001Q4.96,8.0100002,4.71,7.3700004L2.76999998,7.3700004L2.76999998,6.6400003000000005L6.7199998,6.6400003000000005Q6.5099998,5.9200001,6.3600001,5.54L7.0999999,5.4000006Q7.2399998,5.7400002,7.5299997,6.6400003000000005L11.2799997,6.6400003000000005L11.2799997,7.3700004ZM7.96,9.1500001Q8.2999997,8.4100003,8.6099997,7.3700004L5.52,7.3700004Q5.8399999000000005,8.320000199999999,6.0799999,9.1500001L7.96,9.1500001ZM13.89,5.860000100000001L19.49,5.860000100000001L19.49,9.0799999L13.89,9.0799999L13.89,5.860000100000001ZM14.610001,8.3800001L18.76,8.3800001L18.76,6.54L14.610001,6.54L14.610001,8.3800001ZM13.54,14.26L12.82,14.26L12.82,10.100000399999999L16.259999999999998,10.100000399999999L16.259999999999998,14.26L15.54,14.26L15.54,13.7L13.54,13.7L13.54,14.26ZM17.16,14.26L17.16,10.100000399999999L20.630001,10.100000399999999L20.630001,14.26L19.9,14.26L19.9,13.7L17.880000000000003,13.7L17.880000000000003,14.26L17.16,14.26ZM15.54,13.0200005L15.54,10.779999700000001L13.54,10.779999700000001L13.54,13.0200005L15.54,13.0200005ZM17.880000000000003,10.779999700000001L17.880000000000003,13.0200005L19.9,13.0200005L19.9,10.779999700000001L17.880000000000003,10.779999700000001Z" fill="#FFFFFF" fill-opacity="1"/></g></g></svg>