<svg xmlns="http://www.w3.org/2000/svg" xmlns:xlink="http://www.w3.org/1999/xlink" fill="none" version="1.1" width="16" height="16" viewBox="0 0 16 16"><defs><clipPath id="master_svg0_19_7341"><rect x="0" y="0" width="16" height="16" rx="0"/></clipPath></defs><g clip-path="url(#master_svg0_19_7341)"><path d="M9.779765600000001,3.9995702375L4.206953,3.9995702375L5.2914844,2.9150390575C5.4867969,2.7197265575,5.4867969,2.4033203175,5.2914844,2.2080078175C5.0961719,2.0126953125,4.7797656,2.0126953125,4.5844531,2.2080078175L2.64648438,4.1461327375C2.451171875,4.3414452375,2.451171875,4.6578514375,2.64648438,4.8531639375L4.5844531,6.7911329375C4.6821094,6.8887891375,4.8100781,6.9376950375,4.9378905,6.9376950375C5.0657032,6.9376950375,5.1938281,6.8889451375,5.291328,6.7911329375C5.4866405,6.5958204375,5.4866405,6.2794141375,5.291328,6.0841016375L4.206953,4.9995701375L9.779765600000001,4.9995701375C11.8213282,4.9995701375,13.482422,6.5695700375,13.482422,8.4995703375C13.482422,10.4292574375,11.8213282,11.9995699375,9.779765600000001,11.9995699375L4.6636717,11.9995699375C4.3875781,11.9995699375,4.1636719,12.2231634375,4.1636719,12.4995694375C4.1636719,12.7759764375,4.3875781,12.9995694375,4.6636717,12.9995694375L9.7796092,12.9995694375C12.3728905,12.9995694375,14.482265,10.9809761375,14.482265,8.4995703375C14.482422,6.0183203375000005,12.3730469,3.9995702375,9.779765600000001,3.9995702375Z" fill="#306EFD" fill-opacity="1" style="mix-blend-mode:passthrough"/></g></svg>