<svg xmlns="http://www.w3.org/2000/svg" xmlns:xlink="http://www.w3.org/1999/xlink" fill="none" version="1.1" width="24" height="24" viewBox="0 0 24 24"><defs><clipPath id="master_svg0_19_28273"><rect x="5.59999942779541" y="5.59999942779541" width="12.799999237060547" height="12.799999237060547" rx="0"/></clipPath></defs><ellipse cx="12" cy="11.999999046325684" rx="12" ry="11.999999046325684" fill="#306EFD" fill-opacity="1"/><g clip-path="url(#master_svg0_19_28273)"><path d="M6.20838701779541,11.52900122779541L8.941204027795411,13.45890232779541C9.22943092779541,13.66149042779541,9.62440872779541,13.62950132779541,9.86993502779541,13.384265927795411L13.79835792779541,9.46048782779541C14.00118542779541,9.25790122779541,14.342787727795411,9.25790122779541,14.54561422779541,9.46048782779541C14.74844072779541,9.66307402779541,14.74844072779541,10.004272027795409,14.54561422779541,10.20685812779541L10.61718942779541,14.130638127795411C10.37166262779541,14.37587352779541,10.32896332779541,14.77038382779541,10.54246422779541,15.05827142779541L12.474649927795411,17.78785542779541C13.15785312779541,18.75813742779541,14.652362827795411,18.534227427795408,15.02599052779541,17.40400742779541L18.32458642779541,7.50926232779541C18.69821442779541,6.37904345779541,17.62003142779541,5.30213680779541,16.48847442779541,5.67532256279541L6.59268796779541,8.98067922779541C5.4611308577954105,9.35386462779541,5.2476297277954105,10.846606727795411,6.20838701779541,11.52900122779541Z" fill="#FFFFFF" fill-opacity="1" style="mix-blend-mode:passthrough"/></g></svg>