<svg xmlns="http://www.w3.org/2000/svg" xmlns:xlink="http://www.w3.org/1999/xlink" fill="none" version="1.1" width="79" height="28" viewBox="0 0 79 28"><g><path d="M7.9520001,17.056L3.3120003,17.056L2.256,20L0.096000001,20L4.256,8.8959999L7.0720005,8.8959999L11.200001,20L8.9760008,20L7.9520001,17.056ZM7.3280005,15.296L5.7440004,10.768L5.552,10.768L3.9360001,15.296L7.3280005,15.296ZM12.592001,8.8959999L14.688001,8.8959999L14.688001,20L12.592001,20L12.592001,8.8959999ZM19.488001,11.087999Q19.007999,10.287999,18.431999,9.448Q17.856001,8.6079998,17.440001,8.1119995L18.591999,7.1839991Q19.056,7.6639996,19.68,8.4639997Q20.304001,9.2639999,20.704,9.9039993L19.488001,11.087999ZM21.312,7.8879995L30.064001,7.8879995L30.064001,19.584Q30.064001,20.224001,29.912001,20.608Q29.76,20.992001,29.360001,21.208Q28.960001,21.424,28.208,21.488001L27.296001,21.568001L26.832001,20.063999L27.76,20Q28.271999,19.983999,28.431999,19.84Q28.592001,19.695999,28.592001,19.296L28.592001,9.2959995L22.752001,9.2959995L22.752001,13.92Q22.752001,16.08,22.656,17.392Q22.560001,18.704,22.288,19.719999Q22.016001,20.736,21.472,21.776001L20.032,21.024Q20.448,20.191999,20.695999,19.504Q20.944,18.816,21.088001,18.048L20.416,18.816Q19.952,19.327999,18.944,20.511999L17.983999,19.440001Q18.191999,19.216,18.24,18.992001Q18.288,18.768,18.288,18.368L18.288,13.44L16.912001,13.44L16.912001,11.856L19.76,11.856L19.76,17.52L20.496,16.768L21.120001,17.808001Q21.232,17.040001,21.271999,16.024Q21.312,15.007999,21.312,13.344L21.312,7.8879995ZM22.960001,14.576L22.960001,13.264L24.912001,13.264L24.912001,11.983999L23.248001,11.983999L23.248001,10.735999L24.912001,10.735999L24.912001,9.4879999L26.304001,9.5519991L26.304001,10.735999L28.016001,10.735999L28.016001,11.983999L26.304001,11.983999L26.304001,13.264L28.368,13.264L28.368,14.576L22.960001,14.576ZM23.408001,15.504L27.695999,15.504L27.695999,19.68L23.408001,19.68L23.408001,15.504ZM24.768002,18.431999L26.336,18.431999L26.336,16.736L24.768002,16.736L24.768002,18.431999ZM32.32,14.559999Q34.112,13.712,35.136002,12.783999L33.295998,12.783999L33.295998,10L35.776001,10L35.776001,9.2159996L32.944,9.2159996L32.944,8.1119995L35.776001,8.1119995L35.776001,7.039999L37.183998,7.1039991L37.183998,8.1119995L39.984001,8.1119995L39.984001,9.2159996L37.183998,9.2159996L37.183998,10L39.664001,10L39.664001,10.639999Q40.304001,9.9039993,40.855999,8.8799992Q41.408001,7.855999,41.695999,6.895999L43.119999,7.1839991Q42.863998,7.9199991,42.576,8.5439997L46.512001,8.5439997L46.512001,9.7439995L45.568001,9.7439995Q45.152,11.455999,44.144001,12.704Q45.248001,13.472,46.880001,14.143999L46.223999,15.504Q44.352001,14.672,43.152,13.695999Q42.144001,14.544,40.383999,15.455999L39.568001,14.128Q41.216,13.44,42.127998,12.704Q41.472,11.952,41.088001,11.103999Q40.784,11.535999,40.400002,11.936L39.664001,10.848L39.664001,12.783999L37.183998,12.783999L37.183998,15.312L35.776001,15.312L35.776001,13.743999Q34.560001,14.832,33.023998,15.648L32.32,14.559999ZM41.968002,9.7439995L41.903999,9.8719997Q42.32,10.976,43.088001,11.776Q43.776001,10.96,44.144001,9.7439995L41.968002,9.7439995ZM35.776001,10.96L34.543999,10.96L34.543999,11.792L35.776001,11.792L35.776001,10.96ZM38.416,11.792L38.416,10.96L37.183998,10.96L37.183998,11.792L38.416,11.792ZM39.071999,15.104Q38.528,14.719999,37.183998,13.983999L37.647999,13.072Q38.624001,13.472,39.439999,14.016L39.071999,15.104ZM44.720001,19.072001L40.48,19.072001L40.48,20L46.239998,20L46.239998,21.280001L32.896,21.280001L32.896,20L34.911999,20L34.911999,17.487999L36.464001,17.552L36.464001,20L38.848,20L38.848,16.864L33.807999,16.864L33.807999,15.632L45.327999,15.632L45.327999,16.864L40.48,16.864L40.48,17.808001L44.720001,17.808001L44.720001,19.072001ZM61.823997,10.016L61.487999,19.136Q61.456001,19.92,61.231998,20.312Q61.007999,20.704,60.512001,20.872Q60.015999,21.040001,59.007999,21.152L58.127998,21.247999L57.664001,19.695999L58.431999,19.6Q59.136002,19.504,59.424,19.424Q59.711998,19.344,59.84,19.128Q59.967999,18.912001,60,18.416Q60.048,17.184,60.127998,14.968Q60.208,12.752,60.239998,11.504L58.096001,11.504L58.063999,12.384Q57.967999,15.087999,57.671997,16.639999Q57.375999,18.191999,56.695999,19.351999Q56.015999,20.511999,54.624001,21.936001L53.391998,20.736Q54.335999,19.823999,54.751999,19.312Q53.087997,19.552,51.264,19.848Q49.439999,20.143999,48.287998,20.351999L48.079998,18.799999L49.343998,18.608L49.343998,8.0319996L54.736,8.0319996L54.736,17.76L55.472,17.648001L55.503998,18.223999Q56.048,17.247999,56.256001,15.952Q56.464001,14.656,56.559998,12.24Q56.576,12.032,56.576,11.504L55.295998,11.504L55.295998,10.016L56.608002,10.016L56.655998,7.2319994L58.192001,7.2959995L58.127998,10.016L61.823997,10.016ZM53.216,11.408L53.216,9.5199995L50.863998,9.5199995L50.863998,11.408L53.216,11.408ZM50.863998,14.688L53.216,14.688L53.216,12.864L50.863998,12.864L50.863998,14.688ZM50.863998,16.112L50.863998,18.368L52.127998,18.176001Q52.863998,18.048,53.216,18L53.216,16.112L50.863998,16.112ZM78.112,15.584L78.112,17.200001L72.063995,17.200001L72.063995,19.52Q72.063995,20.32,71.872002,20.728001Q71.68,21.136,71.231995,21.312Q70.783997,21.488001,69.903999,21.552L68.703995,21.648001L68.175995,20L69.344002,19.92Q69.839996,19.872,70.040001,19.808001Q70.239998,19.743999,70.304001,19.576Q70.367996,19.408001,70.367996,18.976L70.367996,17.200001L64.080002,17.200001L64.080002,15.584L70.367996,15.584L70.367996,13.568L65.344002,13.568L65.344002,11.952L70.367996,11.952L70.367996,9.6799994Q66.863998,9.9039993,65.183998,9.9679995L65.071999,8.3519993Q67.391998,8.2879992,70.832001,8.0319996Q74.272003,7.7759991,76.687996,7.4719992L76.895996,9.1039991Q74.816002,9.3599997,72.063995,9.5519991L72.063995,11.952L76.848,11.952L76.848,13.568L72.063995,13.568L72.063995,15.584L78.112,15.584Z" fill="#3D3D3D" fill-opacity="1"/></g></svg>